<?xml version="1.0" encoding="utf-8"?>
<!-- Generator: Adobe Illustrator 16.0.0, SVG Export Plug-In . SVG Version: 6.00 Build 0)  -->
<!DOCTYPE svg PUBLIC "-//W3C//DTD SVG 1.1//EN" "http://www.w3.org/Graphics/SVG/1.1/DTD/svg11.dtd">
<svg version="1.1" id="Layer_1" xmlns="http://www.w3.org/2000/svg" xmlns:xlink="http://www.w3.org/1999/xlink" x="0px" y="0px"
	 width="256px" height="256px" viewBox="0 0 256 256" style="enable-background:new 0 0 256 256;" xml:space="preserve">
<rect x="-21" y="-14.547" style="display:none;fill:#00A99D;" width="301" height="293"/>
<g style="opacity:0.8;">
	<g>
		<path d="M20.5,72.453c0,40.667,0,81.333,0,122c0,1.748,0.951,3.446,2.477,4.317c21.125,12.061,42.25,24.121,63.375,36.182
			c8.867,5.062,17.734,10.124,26.601,15.187c5.109,2.917,13.403-4.201,17.641-6.636c32.144-18.467,64.287-36.933,96.43-55.399
			c1.524-0.876,2.477-2.565,2.477-4.317c0-23.212,0-46.425,0-69.637c0-13.92,0-27.841,0-41.762c0-3.136,0-6.272,0-9.409
			c0-3.26-2.07-4.606-4.503-6.016c-23.896-13.844-47.793-27.688-71.689-41.532c-4.442-2.574-8.885-5.147-13.327-7.721
			c-2.604-1.508-5.306-3.645-8.419-1.858c-6.986,4.007-13.972,8.014-20.958,12.021c-29.208,16.755-58.417,33.51-87.626,50.265
			c-5.591,3.207-0.556,11.849,5.047,8.635c36.222-20.778,72.444-41.556,108.667-62.333c-1.682,0-3.365,0-5.047,0
			c30.111,17.444,60.222,34.889,90.333,52.333c-0.826-1.439-1.651-2.878-2.477-4.317c0,40.444,0,80.889,0,121.333
			c0.826-1.439,1.651-2.878,2.477-4.317c-36.167,20.778-72.333,41.556-108.5,62.334c1.682,0,3.365,0,5.047,0
			c-30.167-17.223-60.333-34.444-90.5-51.667c0.826,1.439,1.651,2.878,2.477,4.317c0-40.667,0-81.333,0-122
			C30.5,66.004,20.5,66.004,20.5,72.453z"/>
	</g>
</g>
<g>
	<g>
		<g style="enable-background:new    ;">
			<g>
				<polygon style="fill:#165B79;" points="116.508,246.264 26.294,193.835 25.952,72.624 116.166,125.053 				"/>
			</g>
			<g>
				<polygon style="fill:#2393C2;" points="116.166,125.053 25.952,72.624 134.49,9.955 224.704,62.384 				"/>
			</g>
			<g>
				<polygon style="fill:#2084AF;" points="224.704,62.384 225.046,183.596 116.508,246.264 116.166,125.053 				"/>
			</g>
		</g>
	</g>
</g>
<linearGradient id="SVGID_1_" gradientUnits="userSpaceOnUse" x1="35.439" y1="60.0313" x2="232.439" y2="209.6977">
	<stop  offset="0" style="stop-color:#08624C"/>
	<stop  offset="0.6022" style="stop-color:#21F2AE"/>
	<stop  offset="0.7957" style="stop-color:#22E5A6"/>
</linearGradient>
<polygon style="opacity:0.8;fill:url(#SVGID_1_);" points="26,72.453 26,194.453 116.5,246.12 225,183.786 225,62.453 
	134.667,10.12 "/>
<g>
	<g>
		<g style="enable-background:new    ;">
			<defs>
				<polygon id="SVGID_2_" style="enable-background:new    ;" points="129.954,207.314 129.795,150.843 219.18,99.233 
					219.339,155.704 				"/>
			</defs>
			<clipPath id="SVGID_3_">
				<use xlink:href="#SVGID_2_"  style="overflow:visible;"/>
			</clipPath>
			<g style="clip-path:url(#SVGID_3_);">
				<g>
					<g>
						<g>
							<path style="fill:#333333;" d="M142.372,190.753l-0.042-14.886l6.819-3.938c2.879-1.662,5.122-2.311,6.728-1.953
								c1.606,0.366,2.416,1.671,2.422,3.93c0.006,2.363-0.806,4.698-2.43,7.003c-1.631,2.309-3.882,4.292-6.755,5.951
								L142.372,190.753 M142.303,166.416l-0.038-13.389l4.661-2.691c6.059-3.498,9.098-3.174,9.109,0.972
								c0.006,2.23-0.723,4.408-2.201,6.54c-1.471,2.121-3.494,3.928-6.06,5.409L142.303,166.416 M149.907,139.23l-20.112,11.612
								l0.159,56.472l21.229-12.258c6.263-3.616,11.207-7.992,14.818-13.112c3.611-5.12,5.413-10.269,5.398-15.44
								c-0.01-3.545-1.193-5.874-3.55-6.99c-2.356-1.107-5.502-0.776-9.436,0.995l0-0.161c3.132-2.698,5.701-5.775,7.712-9.223
								c2.011-3.453,3.012-6.698,3.003-9.744c-0.012-4.196-1.674-6.499-4.995-6.896C160.815,134.086,156.068,135.673,149.907,139.23
								"/>
							<polyline style="fill:#333333;" points="219.18,99.233 175.26,124.592 175.289,134.944 190.969,125.891 191.1,172.01 
								203.582,164.803 203.452,118.683 219.208,109.585 219.18,99.233 							"/>
						</g>
					</g>
				</g>
			</g>
		</g>
	</g>
</g>
<polygon style="opacity:0.6;" points="134.241,16.522 215.241,61.901 114.138,118.936 35.104,72.384 "/>
<polygon style="opacity:0.3;" points="134,17.453 134,106.453 213.552,61.04 "/>
<g>
	<ellipse style="fill:#E6E6E6;" cx="91.896" cy="166.598" rx="19.827" ry="26.2"/>
	<circle style="fill:#333333;" cx="89.418" cy="165.338" r="13.808"/>
</g>
<g>
	<ellipse style="fill:#E6E6E6;" cx="49.896" cy="141.598" rx="19.827" ry="26.2"/>
	<circle style="fill:#333333;" cx="47.418" cy="140.338" r="13.808"/>
</g>
</svg>
