<?xml version="1.0" encoding="utf-8"?>
<!-- Generator: Adobe Illustrator 16.0.0, SVG Export Plug-In . SVG Version: 6.00 Build 0)  -->
<!DOCTYPE svg PUBLIC "-//W3C//DTD SVG 1.1//EN" "http://www.w3.org/Graphics/SVG/1.1/DTD/svg11.dtd">
<svg version="1.1" id="Layer_2" xmlns="http://www.w3.org/2000/svg" xmlns:xlink="http://www.w3.org/1999/xlink" x="0px" y="0px"
	 width="1280px" height="720px" viewBox="0 0 1280 720" style="enable-background:new 0 0 1280 720;" xml:space="preserve">
<g>
	<polyline style="fill:#FFFFFF;" points="566.36,310.876 476.209,258.501 367.676,321.167 367.721,321.191 367.923,442.334 
		458,494.727 458,494.792 566.675,432.126 566.408,310.917 	"/>
	<linearGradient id="SVGID_1_" gradientUnits="userSpaceOnUse" x1="383.6606" y1="433.2754" x2="438.1606" y2="386.2754">
		<stop  offset="0" style="stop-color:#B3B3B3"/>
		<stop  offset="1" style="stop-color:#CCCCCC"/>
	</linearGradient>
	<polygon style="fill:url(#SVGID_1_);" points="458.309,494.751 368.058,442.334 367.725,321.167 458.017,373.709 	"/>
	<linearGradient id="SVGID_2_" gradientUnits="userSpaceOnUse" x1="481.5039" y1="476.5537" x2="511.5038" y2="405.0539">
		<stop  offset="0" style="stop-color:#E6E6E6"/>
		<stop  offset="1" style="stop-color:#F2F2F2"/>
	</linearGradient>
	<polygon style="fill:url(#SVGID_2_);" points="458.267,494.792 457.975,373.751 566.475,310.917 566.809,432.126 	"/>
	<linearGradient id="SVGID_3_" gradientUnits="userSpaceOnUse" x1="420.7539" y1="302.3608" x2="484.7539" y2="321.3608">
		<stop  offset="0" style="stop-color:#CCCCCC"/>
		<stop  offset="1" style="stop-color:#FFFFFF"/>
	</linearGradient>
	<polygon style="fill:url(#SVGID_3_);" points="458.017,373.751 566.392,310.876 476.225,258.501 367.684,321.167 	"/>
	<linearGradient id="SVGID_4_" gradientUnits="userSpaceOnUse" x1="367.6758" y1="376.6465" x2="566.6753" y2="376.6465">
		<stop  offset="0" style="stop-color:#662D91"/>
		<stop  offset="1" style="stop-color:#FF0000"/>
	</linearGradient>
	<polyline style="fill:url(#SVGID_4_);" points="566.36,310.876 476.209,258.501 367.676,321.167 367.721,321.191 367.923,442.334 
		458,494.727 458,494.792 566.675,432.126 566.408,310.917 	"/>
	<polygon style="opacity:0.3;fill:#1B1464;" points="476.008,265.069 557.008,310.448 455.904,367.482 376.87,320.931 	"/>
	<polygon style="opacity:0.2;fill:#1B1464;" points="476,266 476,355 555.552,309.586 	"/>
	<g>
		<g>
			<g style="enable-background:new    ;">
				<defs>
					<polygon id="SVGID_5_" style="enable-background:new    ;" points="471.719,455.861 471.56,399.389 560.95,347.776 
						561.109,404.248 					"/>
				</defs>
				<clipPath id="SVGID_6_">
					<use xlink:href="#SVGID_5_"  style="overflow:visible;"/>
				</clipPath>
				<g style="clip-path:url(#SVGID_6_);">
					<g>
						<g>
							<g>
								<path style="fill:#1B1464;" d="M484.136,439.307l-0.042-14.886l6.819-3.938c2.879-1.662,5.123-2.317,6.729-1.952
									c1.612,0.354,2.422,1.666,2.428,3.918c0.007,2.363-0.805,4.698-2.436,7.015c-1.624,2.304-3.876,4.287-6.755,5.95
									L484.136,439.307 M484.067,414.963l-0.038-13.39l4.661-2.69c6.066-3.502,9.104-3.178,9.116,0.968
									c0.006,2.238-0.729,4.412-2.2,6.54c-1.478,2.132-3.5,3.932-6.066,5.413L484.067,414.963 M491.671,387.777l-20.111,11.611
									l0.159,56.473l21.229-12.258c6.27-3.62,11.208-7.985,14.825-13.116c3.611-5.12,5.413-10.269,5.398-15.44
									c-0.01-3.544-1.199-5.87-3.556-6.979c-2.357-1.116-5.502-0.784-9.43,0.983l0-0.161c3.132-2.698,5.701-5.775,7.712-9.222
									c2.011-3.447,3.012-6.7,3.004-9.744c-0.012-4.197-1.681-6.497-5.001-6.895C502.579,382.633,497.838,384.216,491.671,387.777
									"/>
								<polyline style="fill:#1B1464;" points="560.95,347.776 517.024,373.139 517.053,383.498 532.734,374.444 532.864,420.557 
									545.353,413.346 545.222,367.233 560.979,358.136 560.95,347.776 								"/>
							</g>
						</g>
					</g>
				</g>
			</g>
		</g>
	</g>
	<g>
		<g>
			<g style="enable-background:new    ;">
				<defs>
					<polygon id="SVGID_7_" style="enable-background:new    ;" points="466.358,285.42 466.456,251.071 543.397,295.494 
						543.299,329.843 					"/>
				</defs>
				<clipPath id="SVGID_8_">
					<use xlink:href="#SVGID_7_"  style="overflow:visible;"/>
				</clipPath>
				<g style="clip-path:url(#SVGID_8_);">
					<g>
						<g>
							<g>
								<polyline style="fill:#1B1464;" points="514.532,278.828 505.415,293.75 496.399,268.381 487.137,282.801 478.772,260.042 
									466.415,265.458 470.162,272.516 477.147,269.45 487.117,296.575 496.271,282.321 505.381,307.95 514.568,292.914 
									523.738,318.145 532.572,301.56 539.646,312.661 543.356,309.851 530.616,289.856 523.435,303.332 514.532,278.828 								
									"/>
							</g>
						</g>
					</g>
				</g>
			</g>
		</g>
	</g>
	<g>
		<g>
			<g style="enable-background:new    ;">
				<defs>
					<polygon id="SVGID_9_" style="enable-background:new    ;" points="439.906,292.417 439.98,266.27 517.171,310.835 
						517.097,336.982 					"/>
				</defs>
				<clipPath id="SVGID_10_">
					<use xlink:href="#SVGID_9_"  style="overflow:visible;"/>
				</clipPath>
				<g style="clip-path:url(#SVGID_10_);">
					<g>
						<g>
							<g>
								<path style="fill:#FCEE21;" d="M488.224,294.122c-4.789-2.765-11.924-3.401-11.951,6.188
									c-0.002,0.667-0.165,6.467-5.126,3.603c-0.306-0.177-7.38-4.334-7.362-10.813c0.015-5.253-3.136-14.898-11.883-19.949
									c-4.789-2.765-11.93-3.404-11.958,6.185l5.676,3.277c0.017-6.148,5.235-3.518,6.263-2.946
									c5.702,3.292,6.205,8.63,6.226,10.157c-0.029,10.336,8.5,18.001,13.02,20.611c7.91,4.567,10.805-1.595,10.82-6.848
									c0.018-6.147,5.229-3.521,6.257-2.95c5.701,3.292,6.21,8.634,6.225,10.157c-0.014,4.988,1.74,8.955,3.21,11.406
									c2.973,4.95,6.937,7.554,8.354,8.373c0.166,0.096,0.3,0.166,0.39,0.217c7.859,4.486,10.735-1.65,10.75-6.888l-5.676-3.277
									c-0.002,0.667-0.159,6.47-5.126,3.602l-0.166-0.088c-0.003-0.002-0.034-0.019-0.09-0.051c-0.5-0.289-2.98-1.804-4.527-4.379
									c-0.974-1.627-1.449-3.474-1.442-5.638C500.121,308.817,496.97,299.172,488.224,294.122"/>
							</g>
						</g>
					</g>
				</g>
			</g>
		</g>
	</g>
	<g>
		<g>
			<g style="enable-background:new    ;">
				<defs>
					<polygon id="SVGID_11_" style="enable-background:new    ;" points="411.576,310.762 411.68,274.006 490.179,319.328 
						490.075,356.083 					"/>
				</defs>
				<clipPath id="SVGID_12_">
					<use xlink:href="#SVGID_11_"  style="overflow:visible;"/>
				</clipPath>
				<g style="clip-path:url(#SVGID_12_);">
					<g>
						<g>
							<g>
								<polyline style="fill:#00A99D;" points="466.007,305.372 466.973,325.543 447.89,296.162 448.856,316.332 429.78,286.955 
									430.746,307.125 411.669,277.748 412.527,295.593 418.191,298.474 418.076,296.144 437.159,325.532 436.193,305.354 
									455.27,334.739 454.303,314.561 473.38,343.946 472.414,323.768 486.467,345.41 490.114,342.497 466.007,305.372 								
									"/>
							</g>
						</g>
					</g>
				</g>
			</g>
		</g>
	</g>
	<g>
		<g>
			<g style="enable-background:new    ;">
				<defs>
					<polygon id="SVGID_13_" style="enable-background:new    ;" points="387.426,322.454 387.5,296.314 465.738,341.485 
						465.664,367.625 					"/>
				</defs>
				<clipPath id="SVGID_14_">
					<use xlink:href="#SVGID_13_"  style="overflow:visible;"/>
				</clipPath>
				<g style="clip-path:url(#SVGID_14_);">
					<g>
						<g>
							<g>
								<polyline style="fill:#ED1C24;" points="447.593,331.009 423.778,317.259 423.722,336.877 411.259,329.682 411.315,310.063 
									387.5,296.314 387.465,308.764 393.135,312.038 393.151,306.103 405.621,313.301 405.565,332.926 429.38,346.676 
									429.436,327.051 441.898,334.246 441.843,353.872 465.664,367.625 465.703,353.935 460.027,350.658 460.006,357.826 
									447.537,350.626 447.593,331.009 								"/>
							</g>
						</g>
					</g>
				</g>
			</g>
		</g>
	</g>
</g>
<g>
	<polyline style="fill:#FFFFFF;" points="244.851,310.876 154.7,258.501 46.166,321.167 46.212,321.191 46.168,442.334 136,494.727 
		136,494.792 244.92,432.126 244.776,310.917 	"/>
	<linearGradient id="SVGID_15_" gradientUnits="userSpaceOnUse" x1="62.1509" y1="433.2754" x2="116.6506" y2="386.2756">
		<stop  offset="0" style="stop-color:#B3B3B3"/>
		<stop  offset="1" style="stop-color:#CCCCCC"/>
	</linearGradient>
	<polygon style="fill:url(#SVGID_15_);" points="136.799,494.751 46.549,442.334 46.216,321.167 136.507,373.709 	"/>
	<linearGradient id="SVGID_16_" gradientUnits="userSpaceOnUse" x1="159.9951" y1="476.5537" x2="189.9951" y2="405.0537">
		<stop  offset="0" style="stop-color:#E6E6E6"/>
		<stop  offset="1" style="stop-color:#F2F2F2"/>
	</linearGradient>
	<polygon style="fill:url(#SVGID_16_);" points="136.757,494.792 136.466,373.751 244.966,310.917 245.299,432.126 	"/>
	<linearGradient id="SVGID_17_" gradientUnits="userSpaceOnUse" x1="99.2441" y1="302.3613" x2="163.2438" y2="321.3612">
		<stop  offset="0" style="stop-color:#CCCCCC"/>
		<stop  offset="1" style="stop-color:#FFFFFF"/>
	</linearGradient>
	<polygon style="fill:url(#SVGID_17_);" points="136.507,373.751 244.882,310.876 154.716,258.501 46.174,321.167 	"/>
	<linearGradient id="SVGID_18_" gradientUnits="userSpaceOnUse" x1="46.166" y1="376.6465" x2="244.9204" y2="376.6465">
		<stop  offset="0" style="stop-color:#000000"/>
		<stop  offset="1" style="stop-color:#333333"/>
	</linearGradient>
	<polyline style="opacity:0.7;fill:url(#SVGID_18_);" points="244.851,310.876 154.7,258.501 46.166,321.167 46.212,321.191 
		46.168,442.334 136,494.727 136,494.792 244.92,432.126 244.776,310.917 	"/>
	<polygon style="opacity:0.3;fill:#4D4D4D;" points="154.498,265.069 235.498,310.448 134.395,367.482 55.36,320.931 	"/>
	<polygon style="opacity:0.2;" points="144,275 144,364 223.552,318.586 	"/>
	<g>
		<g>
			<g style="enable-background:new    ;">
				<defs>
					<polygon id="SVGID_19_" style="enable-background:new    ;" points="150.212,455.86 150.053,399.389 239.443,347.776 
						239.603,404.248 					"/>
				</defs>
				<clipPath id="SVGID_20_">
					<use xlink:href="#SVGID_19_"  style="overflow:visible;"/>
				</clipPath>
				<g style="clip-path:url(#SVGID_20_);">
					<g>
						<g>
							<g>
								<path style="fill:#00A99D;" d="M162.629,439.307l-0.042-14.886l6.819-3.938c2.879-1.662,5.122-2.317,6.729-1.952
									c1.613,0.354,2.416,1.67,2.422,3.922c0.007,2.363-0.799,4.694-2.43,7.01c-1.624,2.305-3.876,4.289-6.755,5.951
									L162.629,439.307 M162.56,414.963l-0.038-13.389l4.661-2.691c6.065-3.502,9.097-3.174,9.109,0.972
									c0.006,2.238-0.723,4.408-2.201,6.54c-1.471,2.128-3.493,3.928-6.06,5.409L162.56,414.963 M170.164,387.777l-20.111,11.611
									l0.159,56.472l21.229-12.257c6.264-3.616,11.207-7.985,14.818-13.112c3.618-5.124,5.414-10.269,5.399-15.44
									c-0.01-3.545-1.193-5.874-3.549-6.982c-2.357-1.116-5.502-0.784-9.437,0.987l0-0.161c3.132-2.698,5.708-5.779,7.712-9.223
									c2.011-3.446,3.012-6.699,3.003-9.744c-0.012-4.196-1.674-6.5-4.995-6.897C181.072,382.633,176.325,384.22,170.164,387.777"
									/>
								<polyline style="fill:#00A99D;" points="239.443,347.776 195.518,373.139 195.546,383.498 211.227,374.444 211.357,420.557 
									223.839,413.35 223.709,367.237 239.473,358.136 239.443,347.776 								"/>
							</g>
						</g>
					</g>
				</g>
			</g>
		</g>
	</g>
	<g>
		<g>
			<g style="enable-background:new    ;">
				<defs>
					<polygon id="SVGID_21_" style="enable-background:new    ;" points="64.135,436.188 64.371,352.409 100.457,373.245 
						100.221,457.023 					"/>
				</defs>
				<clipPath id="SVGID_22_">
					<use xlink:href="#SVGID_21_"  style="overflow:visible;"/>
				</clipPath>
				<g style="clip-path:url(#SVGID_22_);">
					<g>
						<g>
							<g>
								<path style="fill:#00A99D;" d="M100.457,373.245l-7.291-4.21L93,427.707c-3.642-3.403-6.781-5.973-10.292-8
									c-10.018-5.784-18.514-4.598-18.535,2.901c-0.021,7.497,7.892,18.158,17.909,23.942c10.011,5.779,17.951,4.272,17.973-3.226
									c0.003-0.982,0.21-1.818,0.212-2.743L100.457,373.245"/>
							</g>
						</g>
					</g>
				</g>
			</g>
		</g>
	</g>
	<g>
		<g>
			<g style="enable-background:new    ;">
				<defs>
					<polygon id="SVGID_23_" style="enable-background:new    ;" points="144.843,285.418 144.94,251.069 221.889,295.496 
						221.792,329.845 					"/>
				</defs>
				<clipPath id="SVGID_24_">
					<use xlink:href="#SVGID_23_"  style="overflow:visible;"/>
				</clipPath>
				<g style="clip-path:url(#SVGID_24_);">
					<g>
						<g>
							<g>
								<polyline style="fill:#F2F2F2;" points="193.023,278.83 183.9,293.749 174.891,268.383 165.628,282.803 157.265,260.044 
									144.9,265.456 148.646,272.514 155.639,269.452 165.608,296.577 174.762,282.322 183.867,307.949 193.061,292.916 
									202.224,318.143 211.057,301.558 218.131,312.659 221.848,309.853 209.108,289.858 201.927,303.333 193.023,278.83 								
									"/>
							</g>
						</g>
					</g>
				</g>
			</g>
		</g>
	</g>
	<g>
		<g>
			<g style="enable-background:new    ;">
				<defs>
					<polygon id="SVGID_25_" style="enable-background:new    ;" points="118.399,292.417 118.474,266.27 195.664,310.835 
						195.59,336.982 					"/>
				</defs>
				<clipPath id="SVGID_26_">
					<use xlink:href="#SVGID_25_"  style="overflow:visible;"/>
				</clipPath>
				<g style="clip-path:url(#SVGID_26_);">
					<g>
						<g>
							<g>
								<path style="fill:#00A99D;" d="M166.716,294.122c-4.789-2.765-11.93-3.404-11.957,6.185
									c-0.002,0.667-0.159,6.47-5.126,3.602c-0.3-0.173-7.374-4.331-7.356-10.809c0.015-5.253-3.142-14.902-11.883-19.949
									c-4.795-2.769-11.93-3.404-11.958,6.185l5.676,3.277c0.017-6.148,5.235-3.518,6.263-2.946
									c5.695,3.288,6.204,8.63,6.226,10.157c-0.029,10.336,8.5,18.001,13.013,20.607c7.911,4.567,10.806-1.594,10.821-6.847
									c0.018-6.148,5.235-3.518,6.263-2.946c5.702,3.292,6.205,8.63,6.226,10.157c-0.014,4.988,1.74,8.955,3.21,11.406
									c2.973,4.95,6.937,7.554,8.354,8.373c0.166,0.096,0.3,0.166,0.39,0.217c7.859,4.486,10.735-1.65,10.75-6.888l-5.676-3.277
									c-0.002,0.667-0.165,6.466-5.126,3.602l-0.166-0.088c-0.003-0.002-0.035-0.019-0.09-0.051
									c-0.5-0.289-2.98-1.804-4.528-4.379c-0.974-1.627-1.448-3.474-1.442-5.638C178.614,308.817,175.463,299.172,166.716,294.122
									"/>
							</g>
						</g>
					</g>
				</g>
			</g>
		</g>
	</g>
	<g>
		<g>
			<g style="enable-background:new    ;">
				<defs>
					<polygon id="SVGID_27_" style="enable-background:new    ;" points="90.069,310.762 90.173,274.006 168.672,319.328 
						168.568,356.083 					"/>
				</defs>
				<clipPath id="SVGID_28_">
					<use xlink:href="#SVGID_27_"  style="overflow:visible;"/>
				</clipPath>
				<g style="clip-path:url(#SVGID_28_);">
					<g>
						<g>
							<g>
								<polyline style="fill:#F2F2F2;" points="144.494,305.368 145.46,325.539 126.383,296.161 127.349,316.332 108.272,286.955 
									109.239,307.125 90.162,277.748 91.014,295.589 96.678,298.47 96.569,296.144 115.646,325.529 114.68,305.351 
									133.762,334.739 132.796,314.561 151.873,343.946 150.907,323.768 164.953,345.406 168.607,342.497 144.494,305.368 
																	"/>
							</g>
						</g>
					</g>
				</g>
			</g>
		</g>
	</g>
	<g>
		<g>
			<g style="enable-background:new    ;">
				<defs>
					<polygon id="SVGID_29_" style="enable-background:new    ;" points="65.91,322.454 65.984,296.314 144.222,341.485 
						144.147,367.625 					"/>
				</defs>
				<clipPath id="SVGID_30_">
					<use xlink:href="#SVGID_29_"  style="overflow:visible;"/>
				</clipPath>
				<g style="clip-path:url(#SVGID_30_);">
					<g>
						<g>
							<g>
								<polyline style="fill:#00A99D;" points="126.083,331.013 102.268,317.263 102.212,336.88 89.744,329.682 89.799,310.064 
									65.984,296.314 65.949,308.764 71.625,312.041 71.642,306.106 84.104,313.301 84.049,332.927 107.87,346.68 
									107.926,327.055 120.389,334.25 120.333,353.875 144.147,367.625 144.187,353.935 138.517,350.662 138.497,357.829 
									126.027,350.63 126.083,331.013 								"/>
							</g>
						</g>
					</g>
				</g>
			</g>
		</g>
	</g>
</g>
<g>
	<polyline style="fill:#FFFFFF;" points="1230.527,310.876 1140.377,258.501 1031.843,321.167 1031.889,321.191 1032.006,442.334 
		1122,494.727 1122,494.792 1230.759,432.126 1230.534,310.917 	"/>
	<linearGradient id="SVGID_31_" gradientUnits="userSpaceOnUse" x1="1047.8271" y1="433.2754" x2="1102.3271" y2="386.2754">
		<stop  offset="0" style="stop-color:#B3B3B3"/>
		<stop  offset="1" style="stop-color:#CCCCCC"/>
	</linearGradient>
	<polygon style="fill:url(#SVGID_31_);" points="1122.476,494.751 1032.225,442.334 1031.893,321.167 1122.184,373.709 	"/>
	<linearGradient id="SVGID_32_" gradientUnits="userSpaceOnUse" x1="1145.6709" y1="476.5527" x2="1175.6708" y2="405.0529">
		<stop  offset="0" style="stop-color:#E6E6E6"/>
		<stop  offset="1" style="stop-color:#F2F2F2"/>
	</linearGradient>
	<polygon style="fill:url(#SVGID_32_);" points="1122.434,494.792 1122.143,373.751 1230.643,310.917 1230.976,432.126 	"/>
	<linearGradient id="SVGID_33_" gradientUnits="userSpaceOnUse" x1="1084.9199" y1="302.3608" x2="1148.9199" y2="321.3608">
		<stop  offset="0" style="stop-color:#CCCCCC"/>
		<stop  offset="1" style="stop-color:#FFFFFF"/>
	</linearGradient>
	<polygon style="fill:url(#SVGID_33_);" points="1122.184,373.751 1230.559,310.876 1140.393,258.501 1031.851,321.167 	"/>
	<linearGradient id="SVGID_34_" gradientUnits="userSpaceOnUse" x1="1031.8428" y1="376.6465" x2="1230.7588" y2="376.6465">
		<stop  offset="0" style="stop-color:#F15A24"/>
		<stop  offset="1" style="stop-color:#FBB03B"/>
	</linearGradient>
	<polyline style="fill:url(#SVGID_34_);" points="1230.527,310.876 1140.377,258.501 1031.843,321.167 1031.889,321.191 
		1032.006,442.334 1122,494.727 1122,494.792 1230.759,432.126 1230.534,310.917 	"/>
	<polygon style="opacity:0.3;fill:#1B1464;" points="1140.175,265.069 1221.175,310.448 1120.071,367.482 1041.037,320.931 	"/>
	<polygon style="opacity:0.2;fill:#1B1464;" points="1140,266 1140,355 1219.552,309.586 	"/>
	<g>
		<g>
			<g style="enable-background:new    ;">
				<defs>
					<polygon id="SVGID_35_" style="enable-background:new    ;" points="1135.883,455.861 1135.724,399.389 1225.114,347.776 
						1225.273,404.248 					"/>
				</defs>
				<clipPath id="SVGID_36_">
					<use xlink:href="#SVGID_35_"  style="overflow:visible;"/>
				</clipPath>
				<g style="clip-path:url(#SVGID_36_);">
					<g>
						<g>
							<g>
								<path style="fill:#1B1464;" d="M1148.307,439.303l-0.042-14.886l6.818-3.938c2.873-1.658,5.116-2.313,6.729-1.951
									c1.605,0.357,2.416,1.669,2.422,3.921c0.007,2.363-0.806,4.698-2.43,7.011c-1.63,2.308-3.883,4.292-6.755,5.95
									L1148.307,439.303 M1148.237,414.959l-0.037-13.389l4.661-2.691c6.059-3.498,9.097-3.173,9.108,0.973
									c0.006,2.237-0.729,4.411-2.201,6.539c-1.471,2.129-3.493,3.928-6.065,5.413L1148.237,414.959 M1155.835,387.777
									l-20.111,11.611l0.159,56.473l21.234-12.262c6.264-3.616,11.208-7.985,14.819-13.112c3.611-5.12,5.413-10.269,5.398-15.44
									c-0.01-3.544-1.193-5.874-3.55-6.982c-2.362-1.112-5.502-0.784-9.436,0.987l-0.001-0.161
									c3.133-2.698,5.701-5.775,7.712-9.222s3.013-6.7,3.004-9.745c-0.012-4.196-1.682-6.495-5.002-6.894
									C1166.743,382.633,1162.002,384.216,1155.835,387.777"/>
								<polyline style="fill:#1B1464;" points="1225.114,347.776 1181.188,373.139 1181.217,383.498 1196.904,374.44 
									1197.035,420.553 1209.517,413.346 1209.387,367.233 1225.144,358.136 1225.114,347.776 								"/>
							</g>
						</g>
					</g>
				</g>
			</g>
		</g>
	</g>
	<line style="fill:none;stroke:#1B1464;stroke-width:2;stroke-miterlimit:10;" x1="1032.934" y1="420" x2="1120.934" y2="468.5"/>
	<line style="fill:none;stroke:#1B1464;stroke-width:2;stroke-miterlimit:10;" x1="1032.934" y1="403" x2="1120.934" y2="451.5"/>
	<line style="fill:none;stroke:#1B1464;stroke-width:2;stroke-miterlimit:10;" x1="1034.934" y1="386" x2="1122.934" y2="434.5"/>
	<line style="fill:none;stroke:#1B1464;stroke-width:2;stroke-miterlimit:10;" x1="1033.934" y1="369" x2="1121.934" y2="417.5"/>
	<line style="fill:none;stroke:#1B1464;stroke-width:2;stroke-miterlimit:10;" x1="1033.934" y1="352" x2="1121.934" y2="400.5"/>
	<g>
		<g>
			<g style="enable-background:new    ;">
				<defs>
					<polygon id="SVGID_37_" style="enable-background:new    ;" points="1040.088,427.373 1040.155,403.712 1050.352,409.6 
						1050.284,433.261 					"/>
				</defs>
				<clipPath id="SVGID_38_">
					<use xlink:href="#SVGID_37_"  style="overflow:visible;"/>
				</clipPath>
				<g style="clip-path:url(#SVGID_38_);">
					<g>
						<g>
							<g>
								<path style="fill:#1B1464;" d="M1050.352,409.6l-2.063-1.191l-0.047,16.574c-1.027-0.96-1.914-1.686-2.91-2.261
									c-2.828-1.633-5.227-1.298-5.232,0.814c-0.007,2.12,2.229,5.132,5.058,6.764c2.829,1.634,5.068,1.207,5.074-0.913
									c0.001-0.271,0.065-0.506,0.066-0.771L1050.352,409.6"/>
							</g>
						</g>
					</g>
				</g>
			</g>
		</g>
	</g>
	<g>
		<g>
			<g style="enable-background:new    ;">
				<defs>
					<polygon id="SVGID_39_" style="enable-background:new    ;" points="1062.21,371.114 1062.277,347.453 1072.474,353.34 
						1072.406,377.002 					"/>
				</defs>
				<clipPath id="SVGID_40_">
					<use xlink:href="#SVGID_39_"  style="overflow:visible;"/>
				</clipPath>
				<g style="clip-path:url(#SVGID_40_);">
					<g>
						<g>
							<g>
								<path style="fill:#1B1464;" d="M1072.474,353.34l-2.063-1.191l-0.047,16.574c-1.027-0.961-1.914-1.686-2.903-2.257
									c-2.828-1.633-5.234-1.302-5.24,0.818c-0.006,2.112,2.23,5.123,5.059,6.756c2.828,1.634,5.074,1.211,5.08-0.902
									c0.001-0.278,0.06-0.517,0.061-0.781L1072.474,353.34"/>
							</g>
						</g>
					</g>
				</g>
			</g>
		</g>
	</g>
	<g>
		<g>
			<g style="enable-background:new    ;">
				<defs>
					<polygon id="SVGID_41_" style="enable-background:new    ;" points="1073.594,429.472 1073.66,405.812 1083.851,411.695 
						1083.784,435.355 					"/>
				</defs>
				<clipPath id="SVGID_42_">
					<use xlink:href="#SVGID_41_"  style="overflow:visible;"/>
				</clipPath>
				<g style="clip-path:url(#SVGID_42_);">
					<g>
						<g>
							<g>
								<path style="fill:#1B1464;" d="M1083.851,411.695l-2.056-1.188l-0.047,16.574c-1.027-0.961-1.92-1.689-2.91-2.261
									c-2.828-1.633-5.228-1.299-5.233,0.821c-0.006,2.113,2.23,5.123,5.059,6.756c2.828,1.634,5.068,1.208,5.074-0.905
									c0.001-0.279,0.059-0.518,0.06-0.781L1083.851,411.695"/>
							</g>
						</g>
					</g>
				</g>
			</g>
		</g>
	</g>
	<g>
		<g>
			<g style="enable-background:new    ;">
				<defs>
					<polygon id="SVGID_43_" style="enable-background:new    ;" points="1095.617,458.154 1095.685,434.492 1105.881,440.38 
						1105.813,464.041 					"/>
				</defs>
				<clipPath id="SVGID_44_">
					<use xlink:href="#SVGID_43_"  style="overflow:visible;"/>
				</clipPath>
				<g style="clip-path:url(#SVGID_44_);">
					<g>
						<g>
							<g>
								<path style="fill:#1B1464;" d="M1105.881,440.38l-2.063-1.19l-0.046,16.566c-1.027-0.953-1.914-1.679-2.904-2.25
									c-2.835-1.637-5.233-1.302-5.239,0.811c-0.007,2.12,2.229,5.131,5.059,6.765c2.828,1.633,5.074,1.21,5.08-0.91
									c0.001-0.278,0.059-0.51,0.06-0.774L1105.881,440.38"/>
							</g>
						</g>
					</g>
				</g>
			</g>
		</g>
	</g>
	<g>
		<g>
			<g style="enable-background:new    ;">
				<defs>
					<polygon id="SVGID_45_" style="enable-background:new    ;" points="1129.648,280.935 1129.723,254.629 1208.109,299.885 
						1208.034,326.191 					"/>
				</defs>
				<clipPath id="SVGID_46_">
					<use xlink:href="#SVGID_45_"  style="overflow:visible;"/>
				</clipPath>
				<g style="clip-path:url(#SVGID_46_);">
					<g>
						<g>
							<g>
								<path style="fill:#1B1464;" d="M1160.483,272.389c-0.925-0.534-1.854-0.565-2.32,0.16
									c-2.302,3.582-4.604,7.162-6.907,10.746c-2.292-6.236-4.581-12.468-6.87-18.7c-0.476-1.291-1.329-2.251-2.207-2.758
									c-0.702-0.405-1.421-0.52-1.974-0.28c-3.227,1.414-6.447,2.832-9.674,4.239c-2.02,0.887-0.156,5.05,1.98,6.284
									c0.594,0.343,1.209,0.459,1.768,0.216c2.347-1.029,4.694-2.057,7.039-3.084c2.541,6.919,5.085,13.837,7.626,20.752
									c0.467,1.266,1.382,2.294,2.298,2.823c0.916,0.528,1.83,0.558,2.299-0.169c2.286-3.556,4.573-7.112,6.857-10.673
									c2.272,6.396,4.544,12.792,6.816,19.186c0.445,1.253,1.369,2.286,2.294,2.82c0.923,0.533,1.848,0.569,2.297-0.17
									c2.292-3.75,4.585-7.504,6.878-11.256c2.239,6.165,4.481,12.328,6.723,18.492c0.447,1.238,1.413,2.319,2.364,2.868
									c0.913,0.527,1.812,0.564,2.227-0.217c2.208-4.143,4.415-8.286,6.623-12.433c2.37,3.719,4.739,7.439,7.11,11.161
									c0.555,0.87,1.165,1.455,1.757,1.796c2.157,1.246,4.056-0.751,2.017-3.954c-3.305-5.178-6.603-10.359-9.906-15.544
									c-0.543-0.852-1.301-1.604-2.038-2.03c-0.874-0.504-1.718-0.55-2.14,0.242c-1.949,3.658-3.898,7.315-5.847,10.976
									c-2.2-6.056-4.401-12.11-6.604-18.164c-0.456-1.256-1.382-2.294-2.307-2.828c-0.915-0.529-1.83-0.563-2.284,0.178
									c-2.283,3.733-4.565,7.467-6.848,11.2c-2.26-6.355-4.518-12.711-6.777-19.067
									C1162.307,273.936,1161.397,272.917,1160.483,272.389"/>
							</g>
						</g>
					</g>
				</g>
			</g>
		</g>
	</g>
	<g>
		<g>
			<g style="enable-background:new    ;">
				<defs>
					<polygon id="SVGID_47_" style="enable-background:new    ;" points="1104.251,292.315 1104.324,266.647 1181.164,311.01 
						1181.091,336.678 					"/>
				</defs>
				<clipPath id="SVGID_48_">
					<use xlink:href="#SVGID_47_"  style="overflow:visible;"/>
				</clipPath>
				<g style="clip-path:url(#SVGID_48_);">
					<g>
						<g>
							<g>
								<path style="fill:#F15A24;" d="M1152.353,294.376c-4.173-2.409-8.376-2.623-10.538,0.679
									c-2.081,3.171,0.09,11.288-5.45,9.603c-0.499-0.151-1.015-0.383-1.532-0.682c-3.447-1.991-7.022-6.963-7.061-11.011
									c-0.069-8.073-5.75-16.045-11.775-19.523c-2.412-1.393-4.879-2.065-7.063-1.736c-3.174,0.476-4.487,3.685-4.646,7.738
									c-0.073,1.933,1.218,3.663,2.547,4.43c1.331,0.769,2.702,0.571,2.777-1.356c0.161-4.212,3.272-4.915,6.596-2.996
									c1.112,0.642,2.248,1.578,3.306,2.775c4.009,4.534,2.549,10.024,4.414,14.96c2.14,5.651,7.096,10.32,11.226,12.889
									c0.146,0.091,0.292,0.179,0.437,0.262c5.224,3.016,9.059,0.755,10.069-4.382c0.383-1.939,0.121-4.295,1.071-5.738
									c0.938-1.436,3.316-0.959,5.104-0.125c0.234,0.11,0.465,0.23,0.69,0.361c3.603,2.08,6.219,6.701,6.25,10.377
									c0.064,6.578,3.536,13.66,9.203,17.968c0.745,0.567,1.488,1.066,2.222,1.489c3.861,2.229,7.431,2.358,9.428-0.664
									c0.957-1.447,1.469-3.627,1.5-5.887c0.024-1.962-1.291-3.708-2.621-4.476s-2.676-0.556-2.703,1.402
									c-0.055,4.142-2.376,5.379-5.839,3.38c-0.177-0.102-0.356-0.213-0.54-0.332c-5.081-3.301-4.875-8.01-5.648-12.88
									C1162.629,303.697,1157.514,297.356,1152.353,294.376"/>
							</g>
						</g>
					</g>
				</g>
			</g>
		</g>
	</g>
	<g>
		<g>
			<g style="enable-background:new    ;">
				<defs>
					<polygon id="SVGID_49_" style="enable-background:new    ;" points="1076.57,306.336 1076.65,278.375 1155.236,323.748 
						1155.157,351.708 					"/>
				</defs>
				<clipPath id="SVGID_50_">
					<use xlink:href="#SVGID_49_"  style="overflow:visible;"/>
				</clipPath>
				<g style="clip-path:url(#SVGID_50_);">
					<g>
						<g>
							<g>
								<path style="fill:#00A99D;" d="M1133.576,311.242c-1.377-0.796-2.704-0.548-2.607,1.44
									c0.208,4.371,0.416,8.741,0.625,13.111c-4.731-7.288-9.462-14.577-14.189-21.861c-0.545-0.837-1.249-1.5-1.941-1.899
									c-1.377-0.795-2.703-0.547-2.611,1.439c0.213,4.373,0.422,8.744,0.63,13.112c-4.731-7.285-9.463-14.571-14.194-21.862
									c-0.543-0.833-1.246-1.494-1.938-1.894c-1.377-0.795-2.704-0.551-2.607,1.438c0.207,4.369,0.418,8.741,0.628,13.112
									c-4.729-7.285-9.461-14.571-14.193-21.862c-0.542-0.834-1.247-1.496-1.938-1.895c-1.377-0.795-2.704-0.551-2.608,1.438
									c0.163,3.364,0.32,6.725,0.483,10.089c0.097,2.021,1.479,3.805,2.81,4.573c1.328,0.767,2.605,0.523,2.51-1.502
									c-0.05-1.009-0.098-2.018-0.146-3.026c4.73,7.286,9.461,14.571,14.193,21.858c0.544,0.838,1.25,1.502,1.942,1.902
									c1.375,0.794,2.699,0.548,2.603-1.438c-0.207-4.37-0.415-8.741-0.625-13.112c4.732,7.286,9.463,14.571,14.19,21.854
									c0.546,0.839,1.251,1.503,1.944,1.903c1.377,0.794,2.7,0.546,2.607-1.443c-0.211-4.367-0.421-8.735-0.629-13.104
									c4.731,7.285,9.463,14.569,14.194,21.854c0.543,0.838,1.249,1.502,1.94,1.901c1.377,0.795,2.701,0.547,2.605-1.444
									c-0.209-4.365-0.419-8.735-0.629-13.105c4.729,7.284,9.461,14.569,14.193,21.855c0.554,0.854,1.161,1.43,1.749,1.77
									c2.18,1.258,4.095-0.733,2.023-3.92c-6.361-9.793-12.715-19.591-19.076-29.385
									C1134.973,312.304,1134.268,311.641,1133.576,311.242"/>
							</g>
						</g>
					</g>
				</g>
			</g>
		</g>
	</g>
	<g>
		<g>
			<g style="enable-background:new    ;">
				<defs>
					<polygon id="SVGID_51_" style="enable-background:new    ;" points="1051.77,322.351 1051.843,296.615 1129.723,341.579 
						1129.649,367.314 					"/>
				</defs>
				<clipPath id="SVGID_52_">
					<use xlink:href="#SVGID_51_"  style="overflow:visible;"/>
				</clipPath>
				<g style="clip-path:url(#SVGID_52_);">
					<g>
						<g>
							<g>
								<path style="fill:#ED1C24;" d="M1108.921,329.569c-6.046-3.491-12.093-6.982-18.139-10.472
									c-1.449-0.837-2.666-0.144-2.671,1.522c-0.016,5.52-0.031,11.044-0.047,16.565c-4.273-2.467-8.547-4.935-12.82-7.402
									c0.016-5.521,0.031-11.045,0.047-16.565c0.005-1.666-1.198-3.756-2.647-4.593c-6.053-3.495-12.099-6.985-18.146-10.476
									c-1.449-0.837-2.659-0.14-2.664,1.526c-0.009,3.066-0.018,6.133-0.025,9.192c-0.006,1.974,1.32,3.728,2.65,4.496
									c1.329,0.768,2.661,0.548,2.667-1.425c0.006-2.042,0.012-4.087,0.018-6.133c4.272,2.467,8.545,4.934,12.82,7.402
									c-0.016,5.519-0.031,11.041-0.047,16.558c-0.005,1.666,1.198,3.756,2.653,4.596c6.047,3.491,12.093,6.982,18.14,10.473
									c1.449,0.837,2.666,0.144,2.671-1.522c0.016-5.518,0.031-11.04,0.047-16.559c4.273,2.468,8.547,4.935,12.82,7.402
									c-0.016,5.52-0.031,11.041-0.047,16.559c-0.005,1.666,1.197,3.756,2.646,4.592c6.047,3.491,12.094,6.982,18.146,10.476
									c1.449,0.837,2.66,0.14,2.665-1.525c0.01-3.47,0.02-6.948,0.029-10.425c0.006-1.97-1.321-3.723-2.65-4.49
									c-1.33-0.768-2.662-0.55-2.668,1.419c-0.007,2.459-0.014,4.917-0.021,7.373c-4.274-2.468-8.548-4.935-12.819-7.401
									c0.016-5.521,0.031-11.046,0.047-16.565C1111.58,332.5,1110.37,330.406,1108.921,329.569"/>
							</g>
						</g>
					</g>
				</g>
			</g>
		</g>
	</g>
</g>
<g>
	<polyline style="fill:#FFFFFF;" points="900.838,310.876 810.688,258.501 702.153,321.167 702.199,321.191 702.161,442.334 
		792,494.727 792,494.792 900.914,432.126 900.768,310.917 	"/>
	<linearGradient id="SVGID_53_" gradientUnits="userSpaceOnUse" x1="718.1377" y1="433.2754" x2="772.6377" y2="386.2754">
		<stop  offset="0" style="stop-color:#B3B3B3"/>
		<stop  offset="1" style="stop-color:#CCCCCC"/>
	</linearGradient>
	<polygon style="fill:url(#SVGID_53_);" points="792.786,494.751 702.535,442.334 702.203,321.167 792.494,373.709 	"/>
	<linearGradient id="SVGID_54_" gradientUnits="userSpaceOnUse" x1="815.9834" y1="476.5537" x2="845.9833" y2="405.0539">
		<stop  offset="0" style="stop-color:#E6E6E6"/>
		<stop  offset="1" style="stop-color:#F2F2F2"/>
	</linearGradient>
	<polygon style="fill:url(#SVGID_54_);" points="792.744,494.792 792.453,373.751 900.953,310.917 901.286,432.126 	"/>
	<linearGradient id="SVGID_55_" gradientUnits="userSpaceOnUse" x1="755.2305" y1="302.3613" x2="819.2301" y2="321.3612">
		<stop  offset="0" style="stop-color:#CCCCCC"/>
		<stop  offset="1" style="stop-color:#FFFFFF"/>
	</linearGradient>
	<polygon style="fill:url(#SVGID_55_);" points="792.494,373.751 900.869,310.876 810.703,258.501 702.161,321.167 	"/>
	<linearGradient id="SVGID_56_" gradientUnits="userSpaceOnUse" x1="702.1533" y1="376.6465" x2="900.9141" y2="376.6465">
		<stop  offset="0" style="stop-color:#2E3192"/>
		<stop  offset="1" style="stop-color:#39B54A"/>
	</linearGradient>
	<polyline style="fill:url(#SVGID_56_);" points="900.838,310.876 810.688,258.501 702.153,321.167 702.199,321.191 
		702.161,442.334 792,494.727 792,494.792 900.914,432.126 900.768,310.917 	"/>
	<polygon style="opacity:0.3;fill:#1B1464;" points="810.485,265.069 891.485,310.448 790.382,367.482 711.348,320.931 	"/>
	<polygon style="opacity:0.2;fill:#1B1464;" points="810,266 810,355 889.552,309.586 	"/>
	<g>
		<g>
			<g style="enable-background:new    ;">
				<defs>
					<polygon id="SVGID_57_" style="enable-background:new    ;" points="806.194,455.861 806.035,399.39 895.427,347.776 
						895.586,404.247 					"/>
				</defs>
				<clipPath id="SVGID_58_">
					<use xlink:href="#SVGID_57_"  style="overflow:visible;"/>
				</clipPath>
				<g style="clip-path:url(#SVGID_58_);">
					<g>
						<g>
							<g>
								<path style="fill:#1B1464;" d="M818.611,439.307l-0.042-14.886l6.825-3.94c2.873-1.659,5.116-2.314,6.729-1.953
									c1.605,0.358,2.415,1.67,2.421,3.922c0.007,2.363-0.805,4.698-2.43,7.011c-1.63,2.308-3.882,4.291-6.762,5.954
									L818.611,439.307 M818.543,414.963l-0.038-13.389l4.668-2.695c6.059-3.498,9.098-3.174,9.109,0.972
									c0.006,2.238-0.729,4.412-2.201,6.54c-1.478,2.132-3.493,3.928-6.066,5.413L818.543,414.963 M826.147,387.777
									l-20.112,11.612l0.159,56.472l21.229-12.258c6.271-3.62,11.208-7.985,14.825-13.115c3.612-5.121,5.413-10.27,5.398-15.441
									c-0.01-3.544-1.192-5.874-3.549-6.982c-2.363-1.112-5.502-0.784-9.437,0.988l-0.001-0.162
									c3.133-2.697,5.701-5.775,7.713-9.223c2.011-3.446,3.012-6.699,3.003-9.743c-0.012-4.197-1.681-6.497-5.001-6.895
									C837.056,382.633,832.314,384.216,826.147,387.777"/>
								<polyline style="fill:#1B1464;" points="895.427,347.776 851.5,373.139 851.529,383.498 867.216,374.44 867.347,420.553 
									879.828,413.346 879.698,367.233 895.456,358.135 895.427,347.776 								"/>
							</g>
						</g>
					</g>
				</g>
			</g>
		</g>
	</g>
	<g>
		<g>
			<g style="enable-background:new    ;">
				<defs>
					<polygon id="SVGID_59_" style="enable-background:new    ;" points="709.391,359.164 709.48,327.206 788.058,372.572 
						787.967,404.529 					"/>
				</defs>
				<clipPath id="SVGID_60_">
					<use xlink:href="#SVGID_59_"  style="overflow:visible;"/>
				</clipPath>
				<g style="clip-path:url(#SVGID_60_);">
					<g>
						<g>
							<g>
								<polyline style="fill:#1B1464;" points="758.624,355.579 749.274,368.992 740.025,344.863 730.543,357.796 721.914,336.016 
									709.443,340.324 712.986,347.461 720.348,344.914 730.525,370.603 739.905,357.815 749.243,382.173 758.656,368.663 
									768.054,392.651 777.055,377.757 784.513,388.786 788.021,385.661 775.162,366.655 767.761,378.901 758.624,355.579 
																	"/>
							</g>
						</g>
					</g>
				</g>
			</g>
		</g>
	</g>
	<g>
		<g>
			<g style="enable-background:new    ;">
				<defs>
					<polygon id="SVGID_61_" style="enable-background:new    ;" points="706.802,381.709 706.872,356.904 785.857,402.506 
						785.787,427.311 					"/>
				</defs>
				<clipPath id="SVGID_62_">
					<use xlink:href="#SVGID_61_"  style="overflow:visible;"/>
				</clipPath>
				<g style="clip-path:url(#SVGID_62_);">
					<g>
						<g>
							<g>
								<path style="fill:#FCEE21;" d="M756.258,385.417c-4.201-2.426-12.157-4.425-12.185,5.384
									c-0.003,0.982-0.272,5.729-5.316,2.816c-0.313-0.181-7.642-4.544-7.626-10.289c0.01-3.447-2.148-13.659-12.114-19.413
									c-4.202-2.426-12.151-4.421-12.179,5.388l5.676,3.276c0.016-5.523,5.418-2.742,6.484-2.142
									c5.893,3.402,6.429,8.246,6.457,9.614c-0.027,9.809,8.673,17.426,13.276,20.084c8.058,4.652,11.003-1.076,11.018-6.059
									c0.016-5.523,5.417-2.743,6.49-2.139c5.887,3.399,6.429,8.246,6.451,9.61c-0.011,3.581,1.034,7.219,3.014,10.53
									c3.036,5.073,7.281,7.841,8.769,8.7c0.173,0.1,0.308,0.169,0.396,0.221c8.013,4.582,10.938-1.128,10.953-6.096l-5.676-3.306
									c-0.023,1.375-0.483,5.636-5.323,2.842l-0.14-0.081c-0.054-0.028-0.113-0.061-0.179-0.099
									c-1.04-0.601-3.497-2.325-4.898-4.684c-0.841-1.411-1.245-2.968-1.24-4.751
									C768.376,401.378,766.218,391.167,756.258,385.417"/>
							</g>
						</g>
					</g>
				</g>
			</g>
		</g>
	</g>
	<g>
		<g>
			<g style="enable-background:new    ;">
				<defs>
					<polygon id="SVGID_63_" style="enable-background:new    ;" points="706.437,414.465 706.534,380.078 786.789,426.414 
						786.691,460.801 					"/>
				</defs>
				<clipPath id="SVGID_64_">
					<use xlink:href="#SVGID_63_"  style="overflow:visible;"/>
				</clipPath>
				<g style="clip-path:url(#SVGID_64_);">
					<g>
						<g>
							<g>
								<polyline style="fill:#00A99D;" points="762.228,412.233 763.223,431.076 743.657,402.673 744.653,421.516 725.088,393.113 
									726.083,411.963 706.524,383.563 707.41,400.345 713.074,403.189 712.965,401.127 732.531,429.53 731.536,410.688 
									751.095,439.087 750.099,420.244 769.664,448.646 768.669,429.797 783.285,451.021 786.729,447.807 762.228,412.233 
																	"/>
							</g>
						</g>
					</g>
				</g>
			</g>
		</g>
	</g>
	<g>
		<g>
			<g style="enable-background:new    ;">
				<defs>
					<polygon id="SVGID_65_" style="enable-background:new    ;" points="705.277,440.394 705.348,415.596 785.411,461.82 
						785.341,486.618 					"/>
				</defs>
				<clipPath id="SVGID_66_">
					<use xlink:href="#SVGID_65_"  style="overflow:visible;"/>
				</clipPath>
				<g style="clip-path:url(#SVGID_66_);">
					<g>
						<g>
							<g>
								<polyline style="fill:#ED1C24;" points="766.813,451.082 742.538,437.067 742.486,455.344 729.563,447.883 729.615,429.606 
									705.348,415.596 705.313,427.423 710.99,430.699 711.005,425.396 723.928,432.856 723.876,451.131 748.144,465.143 
									748.195,446.867 761.118,454.328 761.066,472.604 785.341,486.618 785.378,473.647 779.702,470.37 779.684,476.819 
									766.761,469.358 766.813,451.082 								"/>
							</g>
						</g>
					</g>
				</g>
			</g>
		</g>
	</g>
</g>
<g>
	<polyline style="fill:#FFFFFF;" points="165.657,617.651 151.957,609.692 135.464,619.216 135.471,619.22 135.406,637.629 
		149,645.591 149,645.601 165.609,636.077 165.617,617.658 	"/>
	<linearGradient id="SVGID_67_" gradientUnits="userSpaceOnUse" x1="137.8926" y1="636.252" x2="146.1748" y2="629.1095">
		<stop  offset="0" style="stop-color:#B3B3B3"/>
		<stop  offset="1" style="stop-color:#CCCCCC"/>
	</linearGradient>
	<polygon style="fill:url(#SVGID_67_);" points="149.237,645.594 135.521,637.629 135.471,619.216 149.192,627.2 	"/>
	<linearGradient id="SVGID_68_" gradientUnits="userSpaceOnUse" x1="152.7607" y1="642.8291" x2="157.3197" y2="631.9637">
		<stop  offset="0" style="stop-color:#E6E6E6"/>
		<stop  offset="1" style="stop-color:#F2F2F2"/>
	</linearGradient>
	<polygon style="fill:url(#SVGID_68_);" points="149.23,645.601 149.186,627.206 165.674,617.658 165.725,636.077 	"/>
	<linearGradient id="SVGID_69_" gradientUnits="userSpaceOnUse" x1="143.5303" y1="616.3574" x2="153.256" y2="619.2448">
		<stop  offset="0" style="stop-color:#CCCCCC"/>
		<stop  offset="1" style="stop-color:#FFFFFF"/>
	</linearGradient>
	<polygon style="fill:url(#SVGID_69_);" points="149.192,627.206 165.661,617.651 151.959,609.692 135.465,619.216 	"/>
	<linearGradient id="SVGID_70_" gradientUnits="userSpaceOnUse" x1="135.4063" y1="627.6465" x2="165.6567" y2="627.6465">
		<stop  offset="0" style="stop-color:#000000"/>
		<stop  offset="1" style="stop-color:#333333"/>
	</linearGradient>
	<polyline style="opacity:0.7;fill:url(#SVGID_70_);" points="165.657,617.651 151.957,609.692 135.464,619.216 135.471,619.22 
		135.406,637.629 149,645.591 149,645.601 165.609,636.077 165.617,617.658 	"/>
	<polygon style="opacity:0.3;fill:#4D4D4D;" points="151.926,610.69 164.235,617.587 148.871,626.254 136.861,619.18 	"/>
	<polygon style="opacity:0.2;" points="150,612.2 150,625.725 162.089,618.823 	"/>
	<g>
		<g>
			<g style="enable-background:new    ;">
				<defs>
					<polygon id="SVGID_71_" style="enable-background:new    ;" points="151.295,639.683 151.271,631.105 164.857,623.261 
						164.881,631.838 					"/>
				</defs>
				<clipPath id="SVGID_72_">
					<use xlink:href="#SVGID_71_"  style="overflow:visible;"/>
				</clipPath>
				<g style="clip-path:url(#SVGID_72_);">
					<g>
						<g>
							<g>
								<path style="fill:#00A99D;" d="M153.181,637.168l-0.006-2.26l1.034-0.598c0.441-0.254,0.779-0.354,1.022-0.296
									c0.25,0.055,0.372,0.248,0.373,0.594c0.001,0.358-0.126,0.718-0.368,1.064c-0.249,0.35-0.593,0.651-1.027,0.901
									L153.181,637.168 M153.17,633.47l-0.006-2.032l0.708-0.409c0.919-0.53,1.387-0.484,1.389,0.146
									c0.001,0.338-0.113,0.668-0.336,0.995c-0.223,0.32-0.536,0.596-0.925,0.821L153.17,633.47 M154.329,629.34l-3.059,1.766
									l0.024,8.577l3.224-1.861c0.952-0.55,1.704-1.213,2.252-1.992c0.548-0.778,0.827-1.564,0.825-2.35
									c-0.001-0.536-0.182-0.888-0.54-1.063c-0.359-0.167-0.838-0.111-1.439,0.154v-0.021c0.479-0.409,0.868-0.876,1.173-1.405
									c0.306-0.521,0.458-1.014,0.457-1.476c-0.002-0.639-0.252-0.993-0.758-1.055
									C155.983,628.561,155.261,628.802,154.329,629.34"/>
								<polyline style="fill:#00A99D;" points="164.857,623.261 158.179,627.117 158.183,628.687 160.565,627.312 160.584,634.318 
									162.48,633.224 162.461,626.217 164.861,624.831 164.857,623.261 								"/>
							</g>
						</g>
					</g>
				</g>
			</g>
		</g>
	</g>
	<g>
		<g>
			<g style="enable-background:new    ;">
				<defs>
					<polygon id="SVGID_73_" style="enable-background:new    ;" points="138.193,636.693 138.229,623.965 143.713,627.132 
						143.678,639.86 					"/>
				</defs>
				<clipPath id="SVGID_74_">
					<use xlink:href="#SVGID_73_"  style="overflow:visible;"/>
				</clipPath>
				<g style="clip-path:url(#SVGID_74_);">
					<g>
						<g>
							<g>
								<path style="fill:#00A99D;" d="M143.713,627.132l-1.111-0.642l-0.025,8.914c-0.548-0.516-1.027-0.901-1.563-1.212
									c-1.52-0.877-2.812-0.704-2.815,0.44c-0.003,1.137,1.201,2.758,2.721,3.635c1.525,0.881,2.729,0.65,2.731-0.486
									c0-0.155,0.033-0.275,0.033-0.422L143.713,627.132"/>
							</g>
						</g>
					</g>
				</g>
			</g>
		</g>
	</g>
	<g>
		<g>
			<g style="enable-background:new    ;">
				<defs>
					<polygon id="SVGID_75_" style="enable-background:new    ;" points="150.456,613.783 150.471,608.566 162.168,615.319 
						162.153,620.536 					"/>
				</defs>
				<clipPath id="SVGID_76_">
					<use xlink:href="#SVGID_75_"  style="overflow:visible;"/>
				</clipPath>
				<g style="clip-path:url(#SVGID_76_);">
					<g>
						<g>
							<g>
								<polyline style="fill:#F2F2F2;" points="157.781,612.787 156.394,615.051 155.023,611.194 153.617,613.389 152.347,609.93 
									150.465,610.746 151.037,611.826 152.101,611.359 153.617,615.482 155.004,613.315 156.388,617.207 157.788,614.922 
									159.178,618.76 160.521,616.235 161.598,617.923 162.162,617.499 160.226,614.463 159.133,616.508 157.781,612.787 								
									"/>
							</g>
						</g>
					</g>
				</g>
			</g>
		</g>
	</g>
	<g>
		<g>
			<g style="enable-background:new    ;">
				<defs>
					<polygon id="SVGID_77_" style="enable-background:new    ;" points="146.441,614.85 146.453,610.873 158.182,617.646 
						158.17,621.621 					"/>
				</defs>
				<clipPath id="SVGID_78_">
					<use xlink:href="#SVGID_77_"  style="overflow:visible;"/>
				</clipPath>
				<g style="clip-path:url(#SVGID_78_);">
					<g>
						<g>
							<g>
								<path style="fill:#00A99D;" d="M153.782,615.105c-0.728-0.42-1.814-0.519-1.819,0.935c0,0.234-0.066,0.96-0.775,0.551
									c-0.115-0.066-1.124-0.685-1.121-1.639c0.002-0.8-0.473-2.265-1.801-3.031c-0.728-0.421-1.815-0.519-1.819,0.941
									l0.862,0.497c0.002-0.939,0.794-0.54,0.954-0.447c0.862,0.497,0.943,1.308,0.942,1.543c-0.004,1.569,1.29,2.729,1.98,3.127
									c1.2,0.692,1.644-0.234,1.646-1.033c0.002-0.939,0.794-0.541,0.948-0.452c0.868,0.501,0.942,1.308,0.948,1.546
									c-0.002,0.756,0.265,1.358,0.488,1.73c0.452,0.752,1.058,1.153,1.256,1.268l0.058,0.026
									c1.207,0.696,1.645-0.234,1.646-1.033l-0.862-0.505c-0.001,0.234-0.067,0.961-0.801,0.536
									c-0.001,0.001-0.016-0.006-0.041-0.021c-0.116-0.066-0.453-0.294-0.667-0.66c-0.146-0.238-0.215-0.521-0.215-0.844
									C155.592,617.341,155.11,615.872,153.782,615.105"/>
							</g>
						</g>
					</g>
				</g>
			</g>
		</g>
	</g>
	<g>
		<g>
			<g style="enable-background:new    ;">
				<defs>
					<polygon id="SVGID_79_" style="enable-background:new    ;" points="142.134,617.633 142.15,612.051 154.083,618.939 
						154.067,624.522 					"/>
				</defs>
				<clipPath id="SVGID_80_">
					<use xlink:href="#SVGID_79_"  style="overflow:visible;"/>
				</clipPath>
				<g style="clip-path:url(#SVGID_80_);">
					<g>
						<g>
							<g>
								<polyline style="fill:#F2F2F2;" points="150.405,616.816 150.557,619.88 147.653,615.411 147.798,618.479 144.901,614.014 
									145.045,617.08 142.148,612.615 142.281,615.33 143.144,615.769 143.125,615.413 146.022,619.878 145.877,616.811 
									148.775,621.275 148.63,618.209 151.527,622.674 151.382,619.614 153.515,622.896 154.073,622.461 150.405,616.816 								
									"/>
							</g>
						</g>
					</g>
				</g>
			</g>
		</g>
	</g>
	<g>
		<g>
			<g style="enable-background:new    ;">
				<defs>
					<polygon id="SVGID_81_" style="enable-background:new    ;" points="138.464,619.412 138.476,615.436 150.364,622.3 
						150.353,626.275 					"/>
				</defs>
				<clipPath id="SVGID_82_">
					<use xlink:href="#SVGID_81_"  style="overflow:visible;"/>
				</clipPath>
				<g style="clip-path:url(#SVGID_82_);">
					<g>
						<g>
							<g>
								<polyline style="fill:#00A99D;" points="147.605,620.707 143.992,618.621 143.983,621.606 142.087,620.512 142.096,617.526 
									138.476,615.436 138.47,617.329 139.332,617.826 139.334,616.924 141.231,618.019 141.222,621.005 144.842,623.095 
									144.851,620.108 146.741,621.2 146.732,624.186 150.353,626.275 150.358,624.192 149.497,623.695 149.494,624.788 
									147.597,623.693 147.605,620.707 								"/>
							</g>
						</g>
					</g>
				</g>
			</g>
		</g>
	</g>
</g>
<g>
	<polyline style="fill:#FFFFFF;" points="487.157,617.651 473.457,609.692 456.963,619.216 456.971,619.22 457.156,637.629 
		471,645.591 471,645.601 487.359,636.077 487.242,617.658 	"/>
	<linearGradient id="SVGID_83_" gradientUnits="userSpaceOnUse" x1="459.3921" y1="636.252" x2="467.6743" y2="629.1095">
		<stop  offset="0" style="stop-color:#B3B3B3"/>
		<stop  offset="1" style="stop-color:#CCCCCC"/>
	</linearGradient>
	<polygon style="fill:url(#SVGID_83_);" points="470.736,645.594 457.021,637.629 456.971,619.216 470.692,627.2 	"/>
	<linearGradient id="SVGID_84_" gradientUnits="userSpaceOnUse" x1="474.2622" y1="642.8301" x2="478.8212" y2="631.9645">
		<stop  offset="0" style="stop-color:#E6E6E6"/>
		<stop  offset="1" style="stop-color:#F2F2F2"/>
	</linearGradient>
	<polygon style="fill:url(#SVGID_84_);" points="470.73,645.601 470.686,627.206 487.174,617.658 487.225,636.077 	"/>
	<linearGradient id="SVGID_85_" gradientUnits="userSpaceOnUse" x1="465.0298" y1="616.3574" x2="474.7556" y2="619.2448">
		<stop  offset="0" style="stop-color:#CCCCCC"/>
		<stop  offset="1" style="stop-color:#FFFFFF"/>
	</linearGradient>
	<polygon style="fill:url(#SVGID_85_);" points="470.692,627.206 487.161,617.651 473.459,609.692 456.965,619.216 	"/>
	<linearGradient id="SVGID_86_" gradientUnits="userSpaceOnUse" x1="456.9634" y1="627.6465" x2="487.3594" y2="627.6465">
		<stop  offset="0" style="stop-color:#662D91"/>
		<stop  offset="1" style="stop-color:#FF0000"/>
	</linearGradient>
	<polyline style="fill:url(#SVGID_86_);" points="487.157,617.651 473.457,609.692 456.963,619.216 456.971,619.22 457.156,637.629 
		471,645.591 471,645.601 487.359,636.077 487.242,617.658 	"/>
	<polygon style="opacity:0.3;fill:#1B1464;" points="473.426,610.69 485.735,617.587 470.371,626.254 458.361,619.18 	"/>
	<polygon style="opacity:0.2;fill:#1B1464;" points="474,610.832 474,624.357 486.089,617.456 	"/>
	<g>
		<g>
			<g style="enable-background:new    ;">
				<defs>
					<polygon id="SVGID_87_" style="enable-background:new    ;" points="472.775,639.683 472.75,631.105 486.337,623.261 
						486.361,631.838 					"/>
				</defs>
				<clipPath id="SVGID_88_">
					<use xlink:href="#SVGID_87_"  style="overflow:visible;"/>
				</clipPath>
				<g style="clip-path:url(#SVGID_88_);">
					<g>
						<g>
							<g>
								<path style="fill:#1B1464;" d="M474.661,637.168l-0.006-2.26l1.041-0.602c0.435-0.25,0.773-0.351,1.022-0.296
									c0.243,0.059,0.365,0.252,0.366,0.598c0.001,0.358-0.126,0.718-0.368,1.064c-0.249,0.35-0.593,0.651-1.027,0.901
									L474.661,637.168 M474.65,633.47l-0.006-2.032l0.709-0.409c0.919-0.53,1.386-0.484,1.388,0.146
									c0.001,0.338-0.113,0.668-0.336,0.995c-0.223,0.32-0.529,0.593-0.925,0.821L474.65,633.47 M475.809,629.34l-3.059,1.766
									l0.024,8.577l3.224-1.861c0.958-0.554,1.704-1.212,2.252-1.992c0.554-0.782,0.827-1.558,0.825-2.35
									c-0.001-0.536-0.182-0.888-0.54-1.063c-0.359-0.167-0.838-0.111-1.432,0.151v-0.022c0.472-0.405,0.861-0.872,1.166-1.401
									c0.306-0.521,0.458-1.014,0.457-1.476c-0.002-0.639-0.252-0.993-0.758-1.055
									C477.463,628.561,476.741,628.802,475.809,629.34"/>
								<polyline style="fill:#1B1464;" points="486.337,623.261 479.659,627.117 479.663,628.687 482.045,627.312 482.064,634.318 
									483.967,633.221 483.947,626.213 486.341,624.831 486.337,623.261 								"/>
							</g>
						</g>
					</g>
				</g>
			</g>
		</g>
	</g>
	<g>
		<g>
			<g style="enable-background:new    ;">
				<defs>
					<polygon id="SVGID_89_" style="enable-background:new    ;" points="471.962,613.784 471.977,608.561 483.667,615.31 
						483.652,620.533 					"/>
				</defs>
				<clipPath id="SVGID_90_">
					<use xlink:href="#SVGID_89_"  style="overflow:visible;"/>
				</clipPath>
				<g style="clip-path:url(#SVGID_90_);">
					<g>
						<g>
							<g>
								<polyline style="fill:#1B1464;" points="479.281,612.777 477.893,615.048 476.522,611.191 475.116,613.386 473.847,609.927 
									471.971,610.747 472.537,611.823 473.6,611.356 475.116,615.479 476.504,613.313 477.887,617.205 479.288,614.92 
									480.677,618.757 482.021,616.233 483.097,617.92 483.661,617.496 481.726,614.453 480.632,616.505 479.281,612.777 								
									"/>
							</g>
						</g>
					</g>
				</g>
			</g>
		</g>
	</g>
	<g>
		<g>
			<g style="enable-background:new    ;">
				<defs>
					<polygon id="SVGID_91_" style="enable-background:new    ;" points="467.939,614.85 467.951,610.874 479.68,617.646 
						479.668,621.621 					"/>
				</defs>
				<clipPath id="SVGID_92_">
					<use xlink:href="#SVGID_91_"  style="overflow:visible;"/>
				</clipPath>
				<g style="clip-path:url(#SVGID_92_);">
					<g>
						<g>
							<g>
								<path style="fill:#FCEE21;" d="M475.28,615.105c-0.728-0.42-1.808-0.515-1.813,0.938c-0.007,0.23-0.073,0.956-0.782,0.548
									c-0.115-0.066-1.124-0.686-1.121-1.64c0.002-0.8-0.473-2.265-1.801-3.031c-0.728-0.421-1.815-0.519-1.819,0.941l0.862,0.497
									c0.002-0.939,0.794-0.54,0.954-0.447c0.862,0.497,0.943,1.308,0.942,1.543c-0.004,1.569,1.297,2.732,1.98,3.127
									c1.2,0.692,1.644-0.234,1.646-1.033c0.002-0.939,0.794-0.541,0.947-0.452c0.869,0.501,0.943,1.308,0.949,1.546
									c-0.002,0.756,0.265,1.358,0.488,1.73c0.452,0.752,1.058,1.153,1.256,1.268l0.064,0.03c1.2,0.692,1.638-0.238,1.64-1.037
									l-0.862-0.505c0,0.234-0.066,0.961-0.801,0.537c-0.001,0-0.016-0.007-0.041-0.021c-0.116-0.067-0.453-0.295-0.667-0.661
									c-0.146-0.238-0.215-0.521-0.215-0.844C477.09,617.341,476.608,615.872,475.28,615.105"/>
							</g>
						</g>
					</g>
				</g>
			</g>
		</g>
	</g>
	<g>
		<g>
			<g style="enable-background:new    ;">
				<defs>
					<polygon id="SVGID_93_" style="enable-background:new    ;" points="463.632,617.633 463.648,612.051 475.581,618.94 
						475.565,624.522 					"/>
				</defs>
				<clipPath id="SVGID_94_">
					<use xlink:href="#SVGID_93_"  style="overflow:visible;"/>
				</clipPath>
				<g style="clip-path:url(#SVGID_94_);">
					<g>
						<g>
							<g>
								<polyline style="fill:#00A99D;" points="471.903,616.816 472.055,619.88 469.151,615.411 469.302,618.482 466.399,614.014 
									466.55,617.084 463.646,612.615 463.779,615.33 464.641,615.769 464.623,615.413 467.52,619.878 467.375,616.811 
									470.273,621.276 470.128,618.209 473.025,622.675 472.88,619.614 475.013,622.896 475.571,622.461 471.903,616.816 								
									"/>
							</g>
						</g>
					</g>
				</g>
			</g>
		</g>
	</g>
	<g>
		<g>
			<g style="enable-background:new    ;">
				<defs>
					<polygon id="SVGID_95_" style="enable-background:new    ;" points="459.962,619.412 459.974,615.436 471.862,622.3 
						471.851,626.275 					"/>
				</defs>
				<clipPath id="SVGID_96_">
					<use xlink:href="#SVGID_95_"  style="overflow:visible;"/>
				</clipPath>
				<g style="clip-path:url(#SVGID_96_);">
					<g>
						<g>
							<g>
								<polyline style="fill:#ED1C24;" points="469.11,620.711 465.49,618.621 465.481,621.606 463.585,620.512 463.593,617.525 
									459.974,615.436 459.968,617.329 460.83,617.826 460.833,616.924 462.729,618.019 462.72,621.005 466.34,623.095 
									466.349,620.108 468.245,621.203 468.236,624.189 471.851,626.275 471.856,624.192 470.995,623.695 470.991,624.788 
									469.102,623.697 469.11,620.711 								"/>
							</g>
						</g>
					</g>
				</g>
			</g>
		</g>
	</g>
</g>
<g>
	<polyline style="fill:#FFFFFF;" points="817.089,619.072 803.966,611.447 788.166,620.57 788.172,620.574 788.044,638.209 
		801,645.836 801,645.846 816.978,636.723 817.018,619.078 	"/>
	<linearGradient id="SVGID_97_" gradientUnits="userSpaceOnUse" x1="790.4912" y1="636.8906" x2="798.4254" y2="630.0483">
		<stop  offset="0" style="stop-color:#B3B3B3"/>
		<stop  offset="1" style="stop-color:#CCCCCC"/>
	</linearGradient>
	<polygon style="fill:url(#SVGID_97_);" points="801.359,645.84 788.221,638.209 788.173,620.57 801.317,628.219 	"/>
	<linearGradient id="SVGID_98_" gradientUnits="userSpaceOnUse" x1="804.7363" y1="643.1914" x2="809.1037" y2="632.7825">
		<stop  offset="0" style="stop-color:#E6E6E6"/>
		<stop  offset="1" style="stop-color:#F2F2F2"/>
	</linearGradient>
	<polygon style="fill:url(#SVGID_98_);" points="801.354,645.846 801.312,628.225 817.106,619.078 817.154,636.723 	"/>
	<linearGradient id="SVGID_99_" gradientUnits="userSpaceOnUse" x1="795.8926" y1="617.832" x2="805.2092" y2="620.5979">
		<stop  offset="0" style="stop-color:#CCCCCC"/>
		<stop  offset="1" style="stop-color:#FFFFFF"/>
	</linearGradient>
	<polygon style="fill:url(#SVGID_99_);" points="801.317,628.225 817.094,619.072 803.968,611.447 788.167,620.57 	"/>
	<linearGradient id="SVGID_100_" gradientUnits="userSpaceOnUse" x1="788.0439" y1="628.6465" x2="817.0889" y2="628.6465">
		<stop  offset="0" style="stop-color:#2E3192"/>
		<stop  offset="1" style="stop-color:#39B54A"/>
	</linearGradient>
	<polyline style="fill:url(#SVGID_100_);" points="817.089,619.072 803.966,611.447 788.166,620.57 788.172,620.574 
		788.044,638.209 801,645.836 801,645.846 816.978,636.723 817.018,619.078 	"/>
	<polygon style="opacity:0.3;fill:#1B1464;" points="803.937,612.403 815.728,619.01 801.01,627.313 789.504,620.535 	"/>
	<polygon style="opacity:0.2;fill:#1B1464;" points="804,612.539 804,625.495 815.58,618.885 	"/>
	<g>
		<g>
			<g style="enable-background:new    ;">
				<defs>
					<polygon id="SVGID_101_" style="enable-background:new    ;" points="803.309,640.18 803.286,631.963 816.305,624.446 
						816.327,632.663 					"/>
				</defs>
				<clipPath id="SVGID_102_">
					<use xlink:href="#SVGID_101_"  style="overflow:visible;"/>
				</clipPath>
				<g style="clip-path:url(#SVGID_102_);">
					<g>
						<g>
							<g>
								<path style="fill:#1B1464;" d="M805.118,637.769l-0.006-2.164l0.996-0.575c0.415-0.239,0.74-0.34,0.978-0.285
									c0.236,0.054,0.353,0.244,0.354,0.566c0.001,0.346-0.12,0.688-0.355,1.021c-0.235,0.342-0.567,0.629-0.982,0.868
									L805.118,637.769 M805.108,634.225l-0.006-1.952l0.677-0.391c0.888-0.513,1.329-0.458,1.331,0.144
									c0.001,0.323-0.106,0.642-0.324,0.951c-0.21,0.312-0.51,0.573-0.88,0.787L805.108,634.225 M806.216,630.271l-2.93,1.691
									l0.022,8.217l3.091-1.784c0.913-0.527,1.634-1.164,2.162-1.91c0.522-0.742,0.789-1.499,0.787-2.247
									c-0.002-0.521-0.175-0.854-0.521-1.015c-0.345-0.16-0.8-0.118-1.374,0.14v-0.021c0.459-0.391,0.829-0.84,1.121-1.34
									c0.293-0.506,0.439-0.973,0.438-1.42c-0.001-0.609-0.239-0.95-0.726-1.007C807.807,629.514,807.117,629.751,806.216,630.271
									"/>
								<polyline style="fill:#1B1464;" points="816.305,624.446 809.906,628.141 809.911,629.645 812.196,628.324 812.215,635.037 
									814.029,633.99 814.01,627.277 816.309,625.95 816.305,624.446 								"/>
							</g>
						</g>
					</g>
				</g>
			</g>
		</g>
	</g>
	<g>
		<g>
			<g style="enable-background:new    ;">
				<defs>
					<polygon id="SVGID_103_" style="enable-background:new    ;" points="789.216,626.098 789.229,621.446 800.67,628.052 
						800.657,632.703 					"/>
				</defs>
				<clipPath id="SVGID_104_">
					<use xlink:href="#SVGID_103_"  style="overflow:visible;"/>
				</clipPath>
				<g style="clip-path:url(#SVGID_104_);">
					<g>
						<g>
							<g>
								<polyline style="fill:#1B1464;" points="796.386,625.578 795.024,627.533 793.68,624.022 792.299,625.9 791.041,622.735 
									789.224,623.354 789.739,624.394 790.814,624.029 792.293,627.765 793.661,625.908 795.02,629.448 796.394,627.486 
									797.759,630.979 799.069,628.811 800.152,630.413 800.665,629.959 798.793,627.188 797.713,628.976 796.386,625.578 
																	"/>
							</g>
						</g>
					</g>
				</g>
			</g>
		</g>
	</g>
	<g>
		<g>
			<g style="enable-background:new    ;">
				<defs>
					<polygon id="SVGID_105_" style="enable-background:new    ;" points="788.842,629.386 788.853,625.775 800.352,632.414 
						800.341,636.024 					"/>
				</defs>
				<clipPath id="SVGID_106_">
					<use xlink:href="#SVGID_105_"  style="overflow:visible;"/>
				</clipPath>
				<g style="clip-path:url(#SVGID_106_);">
					<g>
						<g>
							<g>
								<path style="fill:#FCEE21;" d="M796.041,629.926c-0.612-0.354-1.77-0.646-1.773,0.776c-0.001,0.206-0.072,0.819-0.775,0.413
									c-0.045-0.025-1.11-0.649-1.108-1.492c0.002-0.507-0.313-1.989-1.763-2.826c-0.613-0.354-1.77-0.647-1.773,0.784
									l0.823,0.476c0.002-0.808,0.794-0.402,0.947-0.313c0.855,0.494,0.937,1.202,0.942,1.404
									c-0.004,1.424,1.259,2.534,1.93,2.922c1.175,0.678,1.599-0.165,1.602-0.884c0.002-0.807,0.794-0.401,0.947-0.313
									c0.855,0.493,0.937,1.202,0.942,1.404c-0.002,0.521,0.15,1.049,0.437,1.53c0.445,0.742,1.064,1.145,1.263,1.259l0.064,0.036
									c1.168,0.675,1.599-0.164,1.601-0.883l-0.823-0.476c-0.001,0.14-0.041,0.829-0.794,0.394
									c-0.015-0.007-0.033-0.017-0.054-0.028c-0.165-0.095-0.494-0.343-0.687-0.663c-0.127-0.213-0.184-0.438-0.184-0.693
									C797.807,632.246,797.49,630.763,796.041,629.926"/>
							</g>
						</g>
					</g>
				</g>
			</g>
		</g>
	</g>
	<g>
		<g>
			<g style="enable-background:new    ;">
				<defs>
					<polygon id="SVGID_107_" style="enable-background:new    ;" points="788.788,634.15 788.803,629.147 800.486,635.894 
						800.472,640.896 					"/>
				</defs>
				<clipPath id="SVGID_108_">
					<use xlink:href="#SVGID_107_"  style="overflow:visible;"/>
				</clipPath>
				<g style="clip-path:url(#SVGID_108_);">
					<g>
						<g>
							<g>
								<polyline style="fill:#00A99D;" points="796.911,633.829 797.057,636.573 794.21,632.438 794.355,635.183 791.502,631.044 
									791.647,633.788 788.801,629.653 788.928,632.093 789.758,632.514 789.74,632.209 792.587,636.344 792.441,633.6 
									795.288,637.734 795.149,634.994 797.996,639.129 797.85,636.385 799.978,639.472 800.478,639.003 796.911,633.829 								
									"/>
							</g>
						</g>
					</g>
				</g>
			</g>
		</g>
	</g>
	<g>
		<g>
			<g style="enable-background:new    ;">
				<defs>
					<polygon id="SVGID_109_" style="enable-background:new    ;" points="788.622,637.928 788.632,634.317 800.284,641.044 
						800.273,644.654 					"/>
				</defs>
				<clipPath id="SVGID_110_">
					<use xlink:href="#SVGID_109_"  style="overflow:visible;"/>
				</clipPath>
				<g style="clip-path:url(#SVGID_110_);">
					<g>
						<g>
							<g>
								<polyline style="fill:#ED1C24;" points="797.576,639.481 794.046,637.443 794.038,640.106 792.154,639.02 792.162,636.355 
									788.632,634.317 788.627,636.041 789.451,636.517 789.453,635.739 791.336,636.826 791.328,639.49 794.859,641.528 
									794.867,638.865 796.75,639.952 796.742,642.616 800.273,644.654 800.279,642.769 799.455,642.293 799.452,643.232 
									797.568,642.145 797.576,639.481 								"/>
							</g>
						</g>
					</g>
				</g>
			</g>
		</g>
	</g>
</g>
<g>
	<polyline style="fill:#FFFFFF;" points="1151.322,616.652 1137.623,608.692 1121.131,618.216 1121.137,618.219 1121.24,636.629 
		1135,644.591 1135,644.601 1151.443,635.077 1151.366,616.658 	"/>
	<linearGradient id="SVGID_111_" gradientUnits="userSpaceOnUse" x1="1123.5586" y1="635.252" x2="1131.8411" y2="628.1093">
		<stop  offset="0" style="stop-color:#B3B3B3"/>
		<stop  offset="1" style="stop-color:#CCCCCC"/>
	</linearGradient>
	<polygon style="fill:url(#SVGID_111_);" points="1134.902,644.594 1121.188,636.629 1121.137,618.216 1134.859,626.2 	"/>
	<linearGradient id="SVGID_112_" gradientUnits="userSpaceOnUse" x1="1138.4268" y1="641.8281" x2="1142.9857" y2="630.9627">
		<stop  offset="0" style="stop-color:#E6E6E6"/>
		<stop  offset="1" style="stop-color:#F2F2F2"/>
	</linearGradient>
	<polygon style="fill:url(#SVGID_112_);" points="1134.896,644.601 1134.852,626.206 1151.34,616.658 1151.391,635.077 	"/>
	<linearGradient id="SVGID_113_" gradientUnits="userSpaceOnUse" x1="1129.1973" y1="615.3574" x2="1138.923" y2="618.2448">
		<stop  offset="0" style="stop-color:#CCCCCC"/>
		<stop  offset="1" style="stop-color:#FFFFFF"/>
	</linearGradient>
	<polygon style="fill:url(#SVGID_113_);" points="1134.859,626.206 1151.328,616.652 1137.625,608.692 1121.131,618.216 	"/>
	<linearGradient id="SVGID_114_" gradientUnits="userSpaceOnUse" x1="1121.1309" y1="626.6465" x2="1151.4434" y2="626.6465">
		<stop  offset="0" style="stop-color:#F15A24"/>
		<stop  offset="1" style="stop-color:#FBB03B"/>
	</linearGradient>
	<polyline style="fill:url(#SVGID_114_);" points="1151.322,616.652 1137.623,608.692 1121.131,618.216 1121.137,618.219 
		1121.24,636.629 1135,644.591 1135,644.601 1151.443,635.077 1151.366,616.658 	"/>
	<polygon style="opacity:0.3;fill:#1B1464;" points="1137.592,609.69 1149.902,616.587 1134.537,625.254 1122.527,618.18 	"/>
	<polygon style="opacity:0.2;fill:#1B1464;" points="1138,609.832 1138,623.357 1150.088,616.455 	"/>
	<g>
		<g>
			<g style="enable-background:new    ;">
				<defs>
					<polygon id="SVGID_115_" style="enable-background:new    ;" points="1136.938,638.684 1136.914,630.106 1150.501,622.262 
						1150.525,630.839 					"/>
				</defs>
				<clipPath id="SVGID_116_">
					<use xlink:href="#SVGID_115_"  style="overflow:visible;"/>
				</clipPath>
				<g style="clip-path:url(#SVGID_116_);">
					<g>
						<g>
							<g>
								<path style="fill:#1B1464;" d="M1138.831,636.165l-0.006-2.26l1.034-0.598c0.434-0.25,0.779-0.354,1.021-0.296
									c0.243,0.051,0.365,0.252,0.366,0.598c0.001,0.358-0.119,0.715-0.367,1.064c-0.248,0.349-0.593,0.65-1.027,0.901
									L1138.831,636.165 M1138.82,632.467l-0.005-2.032l0.708-0.409c0.92-0.53,1.38-0.48,1.382,0.15
									c0.001,0.338-0.113,0.669-0.336,0.995c-0.224,0.32-0.529,0.592-0.919,0.817L1138.82,632.467 M1139.973,628.341l-3.059,1.766
									l0.024,8.577l3.231-1.865c0.951-0.55,1.703-1.212,2.251-1.992c0.548-0.778,0.821-1.561,0.818-2.346
									c-0.001-0.536-0.181-0.888-0.54-1.063c-0.358-0.168-0.838-0.111-1.432,0.151v-0.022c0.472-0.405,0.867-0.876,1.172-1.404
									c0.306-0.521,0.458-1.015,0.457-1.477c-0.002-0.639-0.259-0.989-0.764-1.051
									C1141.633,627.558,1140.912,627.799,1139.973,628.341"/>
								<polyline style="fill:#1B1464;" points="1150.501,622.262 1143.822,626.117 1143.827,627.688 1146.215,626.309 
									1146.234,633.316 1148.131,632.221 1148.111,625.214 1150.506,623.832 1150.501,622.262 								"/>
							</g>
						</g>
					</g>
				</g>
			</g>
		</g>
	</g>
	
		<line style="fill:none;stroke:#1B1464;stroke-width:0.5;stroke-miterlimit:10;" x1="1121.295" y1="633.234" x2="1134.668" y2="640.605"/>
	
		<line style="fill:none;stroke:#1B1464;stroke-width:0.5;stroke-miterlimit:10;" x1="1121.295" y1="630.651" x2="1134.668" y2="638.021"/>
	
		<line style="fill:none;stroke:#1B1464;stroke-width:0.5;stroke-miterlimit:10;" x1="1121.6" y1="628.068" x2="1134.973" y2="635.438"/>
	
		<line style="fill:none;stroke:#1B1464;stroke-width:0.5;stroke-miterlimit:10;" x1="1121.447" y1="625.484" x2="1134.82" y2="632.854"/>
	
		<line style="fill:none;stroke:#1B1464;stroke-width:0.5;stroke-miterlimit:10;" x1="1121.447" y1="622.901" x2="1134.82" y2="630.271"/>
	<g>
		<g>
			<g style="enable-background:new    ;">
				<defs>
					<polygon id="SVGID_117_" style="enable-background:new    ;" points="1122.379,634.355 1122.389,630.761 1123.94,631.656 
						1123.93,635.251 					"/>
				</defs>
				<clipPath id="SVGID_118_">
					<use xlink:href="#SVGID_117_"  style="overflow:visible;"/>
				</clipPath>
				<g style="clip-path:url(#SVGID_118_);">
					<g>
						<g>
							<g>
								<path style="fill:#1B1464;" d="M1123.94,631.656l-0.313-0.181l-0.007,2.517c-0.154-0.146-0.294-0.257-0.44-0.342
									c-0.429-0.247-0.799-0.197-0.8,0.118c-0.001,0.323,0.343,0.786,0.771,1.033s0.773,0.182,0.774-0.141l0.006-0.114
									L1123.94,631.656"/>
							</g>
						</g>
					</g>
				</g>
			</g>
		</g>
	</g>
	<g>
		<g>
			<g style="enable-background:new    ;">
				<defs>
					<polygon id="SVGID_119_" style="enable-background:new    ;" points="1125.744,625.806 1125.755,622.211 1127.307,623.106 
						1127.296,626.701 					"/>
				</defs>
				<clipPath id="SVGID_120_">
					<use xlink:href="#SVGID_119_"  style="overflow:visible;"/>
				</clipPath>
				<g style="clip-path:url(#SVGID_120_);">
					<g>
						<g>
							<g>
								<path style="fill:#1B1464;" d="M1127.307,623.106l-0.313-0.181l-0.007,2.517c-0.159-0.144-0.294-0.258-0.44-0.342
									c-0.434-0.251-0.799-0.197-0.8,0.126c-0.001,0.314,0.337,0.774,0.771,1.025c0.428,0.247,0.767,0.178,0.768-0.138
									l0.014-0.117L1127.307,623.106"/>
							</g>
						</g>
					</g>
				</g>
			</g>
		</g>
	</g>
	<g>
		<g>
			<g style="enable-background:new    ;">
				<defs>
					<polygon id="SVGID_121_" style="enable-background:new    ;" points="1127.473,634.671 1127.482,631.076 1129.034,631.972 
						1129.023,635.566 					"/>
				</defs>
				<clipPath id="SVGID_122_">
					<use xlink:href="#SVGID_121_"  style="overflow:visible;"/>
				</clipPath>
				<g style="clip-path:url(#SVGID_122_);">
					<g>
						<g>
							<g>
								<path style="fill:#1B1464;" d="M1129.034,631.972l-0.313-0.181l-0.007,2.517c-0.16-0.145-0.294-0.251-0.44-0.336
									c-0.435-0.251-0.799-0.203-0.8,0.12c-0.001,0.322,0.344,0.778,0.771,1.025c0.428,0.247,0.773,0.188,0.774-0.134l0.006-0.121
									L1129.034,631.972"/>
							</g>
						</g>
					</g>
				</g>
			</g>
		</g>
	</g>
	<g>
		<g>
			<g style="enable-background:new    ;">
				<defs>
					<polygon id="SVGID_123_" style="enable-background:new    ;" points="1130.82,639.035 1130.831,635.44 1132.383,636.336 
						1132.372,639.932 					"/>
				</defs>
				<clipPath id="SVGID_124_">
					<use xlink:href="#SVGID_123_"  style="overflow:visible;"/>
				</clipPath>
				<g style="clip-path:url(#SVGID_124_);">
					<g>
						<g>
							<g>
								<path style="fill:#1B1464;" d="M1132.383,636.336l-0.313-0.181l-0.007,2.518c-0.159-0.151-0.294-0.259-0.44-0.343
									c-0.434-0.251-0.799-0.204-0.8,0.118c-0.001,0.323,0.344,0.786,0.771,1.033c0.429,0.247,0.768,0.179,0.769-0.145
									l0.014-0.117L1132.383,636.336"/>
							</g>
						</g>
					</g>
				</g>
			</g>
		</g>
	</g>
	<g>
		<g>
			<g style="enable-background:new    ;">
				<defs>
					<polygon id="SVGID_125_" style="enable-background:new    ;" points="1136.129,612.164 1136.141,608.167 1147.837,614.92 
						1147.825,618.917 					"/>
				</defs>
				<clipPath id="SVGID_126_">
					<use xlink:href="#SVGID_125_"  style="overflow:visible;"/>
				</clipPath>
				<g style="clip-path:url(#SVGID_126_);">
					<g>
						<g>
							<g>
								<path style="fill:#1B1464;" d="M1143.449,612.386c-0.139-0.08-0.276-0.084-0.344,0.03c-0.352,0.567-0.698,1.132-1.044,1.7
									c-0.343-0.966-0.685-1.929-1.031-2.897c-0.066-0.192-0.204-0.347-0.343-0.427c-0.141-0.081-0.281-0.085-0.353,0.025
									c-0.353,0.54-0.7,1.087-1.05,1.631c-0.35-0.947-0.697-1.896-1.045-2.841c-0.07-0.196-0.2-0.342-0.334-0.419
									c-0.107-0.063-0.219-0.081-0.305-0.045c-0.486,0.219-0.979,0.427-1.466,0.646c-0.306,0.134-0.024,0.77,0.299,0.956
									c0.09,0.052,0.183,0.069,0.268,0.032c0.359-0.156,0.715-0.315,1.073-0.471c0.386,1.051,0.771,2.105,1.157,3.154
									c0.07,0.191,0.208,0.347,0.349,0.428c0.14,0.08,0.279,0.086,0.354-0.022c0.345-0.539,0.693-1.081,1.039-1.622
									c0.346,0.97,0.692,1.943,1.036,2.916c0.066,0.188,0.207,0.346,0.348,0.427c0.14,0.081,0.28,0.087,0.349-0.025
									c0.353-0.568,0.701-1.141,1.049-1.71c0.34,0.937,0.68,1.875,1.02,2.809c0.067,0.189,0.213,0.353,0.357,0.436
									c0.139,0.08,0.275,0.086,0.338-0.033c0.336-0.627,0.672-1.259,1.01-1.887c0.36,0.564,0.72,1.131,1.076,1.694
									c0.085,0.134,0.179,0.223,0.27,0.275c0.329,0.189,0.617-0.113,0.307-0.604c-0.503-0.79-0.999-1.569-1.502-2.359
									c-0.086-0.131-0.201-0.246-0.314-0.312c-0.132-0.076-0.259-0.082-0.324,0.038c-0.296,0.555-0.593,1.112-0.889,1.669
									c-0.334-0.921-0.668-1.842-1.002-2.76C1143.731,612.626,1143.59,612.467,1143.449,612.386"/>
							</g>
						</g>
					</g>
				</g>
			</g>
		</g>
	</g>
	<g>
		<g>
			<g style="enable-background:new    ;">
				<defs>
					<polygon id="SVGID_127_" style="enable-background:new    ;" points="1132.152,613.827 1132.163,609.92 1143.822,616.651 
						1143.811,620.559 					"/>
				</defs>
				<clipPath id="SVGID_128_">
					<use xlink:href="#SVGID_127_"  style="overflow:visible;"/>
				</clipPath>
				<g style="clip-path:url(#SVGID_128_);">
					<g>
						<g>
							<g>
								<path style="fill:#F15A24;" d="M1139.337,614.062c-0.917-0.529-1.625-0.017-1.675,0.99
									c-0.034,0.757-0.403,0.776-0.811,0.541c-0.252-0.146-0.52-0.389-0.73-0.614c-0.377-0.401-0.419-1.345-0.533-1.829
									c-0.126-0.558-0.584-1.409-1.037-1.745c-0.182-0.136-0.36-0.255-0.531-0.354c-0.945-0.545-1.68-0.478-1.861,0.706
									c-0.051,0.323,0.209,0.704,0.442,0.839c0.157,0.091,0.302,0.071,0.336-0.147c0.104-0.676,0.626-0.775,1.107-0.497
									c0.431,0.248,0.827,0.799,0.859,1.508c0.023,0.55,0.126,0.837,0.36,1.399c0.248,0.591,0.841,1.161,1.281,1.474
									c0.093,0.067,0.182,0.125,0.27,0.175c0.945,0.546,1.525,0.129,1.651-0.902c0.088-0.696,0.563-0.774,1.022-0.51
									c0.458,0.265,0.901,0.871,0.932,1.55c0.03,0.554,0.119,0.854,0.328,1.417c0.209,0.555,0.777,1.125,1.179,1.4
									c0.062,0.041,0.123,0.08,0.183,0.114c0.985,0.569,1.655,0.164,1.707-0.971c0.014-0.29-0.181-0.551-0.382-0.667
									s-0.409-0.088-0.423,0.203c-0.04,0.824-0.212,1.032-0.441,0.9c-0.508-0.294-1.293-2.271-1.504-2.84
									c-0.343-0.947-0.789-1.462-1.51-1.996C1139.482,614.151,1139.409,614.104,1139.337,614.062"/>
							</g>
						</g>
					</g>
				</g>
			</g>
		</g>
	</g>
	<g>
		<g>
			<g style="enable-background:new    ;">
				<defs>
					<polygon id="SVGID_129_" style="enable-background:new    ;" points="1127.907,615.989 1127.919,611.738 1139.769,618.579 
						1139.757,622.83 					"/>
				</defs>
				<clipPath id="SVGID_130_">
					<use xlink:href="#SVGID_129_"  style="overflow:visible;"/>
				</clipPath>
				<g style="clip-path:url(#SVGID_130_);">
					<g>
						<g>
							<g>
								<path style="fill:#00A99D;" d="M1136.565,616.729c-0.209-0.12-0.408-0.079-0.393,0.226c0.032,0.663,0.063,1.324,0.095,1.987
									c-0.717-1.104-1.438-2.213-2.156-3.316c-0.084-0.13-0.193-0.233-0.299-0.295c-0.209-0.12-0.408-0.082-0.392,0.22
									c0.031,0.666,0.063,1.328,0.094,1.99c-0.719-1.104-1.438-2.213-2.155-3.32c-0.083-0.126-0.189-0.227-0.295-0.287
									c-0.21-0.121-0.412-0.084-0.396,0.22c0.031,0.661,0.062,1.326,0.093,1.99c-0.718-1.105-1.437-2.214-2.155-3.321
									c-0.083-0.126-0.19-0.227-0.295-0.286c-0.21-0.122-0.411-0.084-0.396,0.219c0.023,0.514,0.048,1.02,0.072,1.533
									c0.016,0.306,0.226,0.577,0.429,0.694c0.202,0.117,0.397,0.08,0.383-0.226c-0.007-0.154-0.015-0.307-0.021-0.46
									c0.716,1.104,1.437,2.214,2.155,3.323c0.083,0.126,0.189,0.226,0.295,0.286c0.21,0.121,0.412,0.085,0.396-0.219
									c-0.031-0.661-0.063-1.326-0.094-1.989c0.717,1.105,1.437,2.21,2.155,3.319c0.083,0.127,0.189,0.227,0.295,0.287
									c0.21,0.121,0.412,0.084,0.396-0.219c-0.03-0.663-0.062-1.325-0.094-1.99c0.717,1.105,1.437,2.211,2.156,3.32
									c0.083,0.126,0.189,0.227,0.294,0.287c0.211,0.121,0.412,0.084,0.396-0.219c-0.031-0.664-0.063-1.327-0.094-1.99
									c0.716,1.105,1.436,2.211,2.155,3.319c0.084,0.13,0.177,0.218,0.266,0.27c0.33,0.19,0.621-0.112,0.304-0.602
									c-0.961-1.481-1.929-2.973-2.896-4.457C1136.779,616.894,1136.672,616.791,1136.565,616.729"/>
							</g>
						</g>
					</g>
				</g>
			</g>
		</g>
	</g>
	<g>
		<g>
			<g style="enable-background:new    ;">
				<defs>
					<polygon id="SVGID_131_" style="enable-background:new    ;" points="1124.161,618.398 1124.172,614.481 1136.009,621.315 
						1135.998,625.232 					"/>
				</defs>
				<clipPath id="SVGID_132_">
					<use xlink:href="#SVGID_131_"  style="overflow:visible;"/>
				</clipPath>
				<g style="clip-path:url(#SVGID_132_);">
					<g>
						<g>
							<g>
								<path style="fill:#ED1C24;" d="M1132.842,619.487c-0.919-0.531-1.832-1.059-2.751-1.589
									c-0.224-0.129-0.409-0.023-0.41,0.233c-0.002,0.733-0.005,1.468-0.007,2.208c0,0.13-0.002,0.229-0.006,0.306
									c-0.321-0.186-0.643-0.372-0.965-0.558c-0.326-0.188-0.651-0.376-0.978-0.563c0.003-0.844,0.005-1.68,0.008-2.517
									c0-0.258-0.184-0.576-0.401-0.702c-0.919-0.53-1.838-1.062-2.758-1.593c-0.224-0.129-0.402-0.02-0.403,0.238
									c-0.001,0.462-0.003,0.932-0.004,1.394c-0.001,0.301,0.199,0.566,0.4,0.683s0.403,0.083,0.403-0.218
									c0.001-0.162,0.001-0.323,0.002-0.492c0-0.211,0.008-0.347,0.015-0.433c0.582,0.336,1.165,0.673,1.749,1.01
									c0.089,0.051,0.159,0.083,0.216,0.102c-0.019,0.07-0.031,0.171-0.032,0.313c-0.002,0.733-0.004,1.475-0.006,2.208
									c-0.001,0.257,0.184,0.576,0.407,0.706c0.919,0.53,1.839,1.062,2.758,1.592c0.217,0.125,0.403,0.021,0.404-0.237
									c0.002-0.732,0.004-1.474,0.006-2.208c0.001-0.129,0.002-0.229,0.005-0.306c0.324,0.188,0.647,0.374,0.966,0.558
									c0.326,0.188,0.651,0.376,0.978,0.563c-0.003,0.838-0.005,1.681-0.008,2.517c0,0.257,0.185,0.577,0.401,0.702
									c0.919,0.531,1.839,1.062,2.758,1.593c0.224,0.129,0.409,0.023,0.41-0.234c0.002-0.527,0.003-1.056,0.005-1.584
									c0.001-0.298-0.201-0.563-0.404-0.68s-0.405-0.086-0.406,0.212c-0.001,0.19-0.001,0.374-0.002,0.557
									c-0.001,0.307-0.018,0.467-0.025,0.552c-0.579-0.334-1.158-0.668-1.732-1c-0.092-0.053-0.165-0.086-0.223-0.104
									c0.02-0.07,0.032-0.172,0.032-0.315c0.003-0.74,0.005-1.475,0.007-2.208C1133.25,619.936,1133.066,619.616,1132.842,619.487
									"/>
							</g>
						</g>
					</g>
				</g>
			</g>
		</g>
	</g>
</g>
<text transform="matrix(1.1243 0 0 1 104.3911 135.6675)" style="font-family:'SegoeUI-Bold'; font-size:98.9399;">1.</text>
<text transform="matrix(1.1243 0 0 1 425.9009 135.6675)" style="font-family:'SegoeUI-Bold'; font-size:98.9399;">2.</text>
<text transform="matrix(1.1243 0 0 1 755.7578 135.6675)" style="font-family:'SegoeUI-Bold'; font-size:98.9399;">3.</text>
<text transform="matrix(1.1243 0 0 1 1090.0674 135.6675)" style="font-family:'SegoeUI-Bold'; font-size:98.9399;">4.</text>
</svg>
